<mxfile host="app.diagrams.net" modified="2021-07-02T05:20:15.228Z" agent="5.0 (Windows NT 10.0; WOW64) AppleWebKit/537.36 (KHTML, like Gecko) Chrome/91.0.4472.124 Safari/537.36" etag="YcCRFz-cBSUqx1zrvBwM" version="14.8.3" type="github">
  <diagram id="2dYkwKKE21rlS8DQelHl" name="Page-1">
    <mxGraphModel dx="1108" dy="482" grid="1" gridSize="10" guides="1" tooltips="1" connect="1" arrows="1" fold="1" page="1" pageScale="1" pageWidth="850" pageHeight="1100" math="0" shadow="0">
      <root>
        <mxCell id="0" />
        <mxCell id="1" parent="0" />
        <mxCell id="TvgytmN6nU-GXaOfQp26-2" value="" style="shape=image;verticalLabelPosition=bottom;labelBackgroundColor=#ffffff;verticalAlign=top;aspect=fixed;imageAspect=0;image=data:image/png,iVBORw0KGgoAAAANSUhEUgAABHQAAAIXCAYAAAD9vAl4AAAgAElEQVR4Aey9v67sNrK37Xvq8ABzbsawPcBKP+ALJpqNvaMVTvQOXkxm2MABPmDjBBOdwIDh5EQrc2D4AnZg+Ar0gX+KLBapFruXpJaaj4Ht7pZEsuqpn0RWtVrrq1/+938m/sEADaABNIAG0AAaGFEDf/z5ZeLfdgycpuC7Hd8R2aIp9DSi7vH5+XU/3fnfVyMu3vCZpAUNoAE0gAbQABpwGmCRvO0iGcbb8h1Rv2gKTY2oe3x+ft3fWc+ZKOhwhxJ3aKEBNIAG0AAaGFYDLJK3XSSTfG/Ld0T9oik0NaLu8fn5dU9Bh8X4sItxN7HzDwZoAA2gATRwjwZYJG+7SHYxgfG2jEfji6bQ02iax98xNE9Bh6SeogYaQANoAA2gATRwowZYKG+7UCb53pbviPpFU2hqRN3j8/PrnoLOjQs4NxnwDwZoAA2gATSABsbWAIvkbRfJ7vyC8baMR+OLptDTaJrH3zE0T0GHAg0FKjSABtAAGkADaOBGDbBQ3nahTPK9Ld8R9Yum0NSIusfn59c9BZ0bF3BuMuAfDNAAGkADaAANjK0BFsnbLpLd+QXjbRmPxhdNoafRNI+/Y2iegg4FGgpUaAANoAE0gAbQwI0aYKG87UKZ5HtbviPqF02hqRF1j8/Pr3sKOjcu4NxkwD8YoAE0gAbQABoYWwMskrddJLvzC8bbMh6NL5pCT6NpHn/H0DwFHQo0FKjQABpAA2gADaCBGzXAQnnbhTLJ97Z8R9Tv5pr65cN0uXwz/fD7eWL386fLdPn0E8XTPyVmv04/fHeZvv3xV5gkJsLmAK+/fz99e7lMl8tl+vjLvD1e1+64776ffvNtznVe3np9fkxB519fT1999VX699d//c/0y7//Nv3dvXYsqP7743+ktqGfr6d/6nat/vX+kd4bFo6X5/2//zX9/eVv03+71/80sTg0n/+a/v7xH1066dESx/Sdc/98yRrR527x/uVBcfnX36a//1v78Y/pr/76Yq4Lm+t67lyas+cf098//hda3jwuWhu855q3ngZuWnD5BeWH6We7QFaLU7dAPVsyeBMD6/vCZ6fVnv7Twn1hgd/TF8fMJ0jPwKZXU3/cmwBS0Ok6Z4+tJQo6x43PT9PHjuv8bz9+Ewo5Msfcez5L+xO87l/QiQWGUFQICytJFvW25UVnmTx99Z+uOKEXalKw0NtGei9J5FeTZSO80/Z//236Syyw3RaD/Xn6Yt6jCgeFvvb3ffmc2NgmpZO/mEKE19RD4uJ0/h8HKeiEwnR9Lsm5WBaYHDPL8eExHl3j+E+B8QYNdC16fYIXvk28XOqCzs+fym1+Ido4rmusEyw6b/GjN/nmDoPnLsLcopmlY3s1VRd0njfJXz5/9vK9L1lfinHY32tza8zetpx3fbFYkVNnYabSdGe73f1Zcc7euaAjRZgysXEXWJfc3FZMcAWbr6e/qrtLvioSypELOpJA1sWclDC6wloqguXjb4vBxgUEu7COxcAyzjvbYG0a6fOVgs4v7k6v3e+ckuuJLeg8UBOK0bVzSe4ypKDzwFiNdO7i6yaFquXFn0oWfGGnLN6026s2Ky722mOtuNDewNbe5LtavG9gyxn5YXOt715NUdDR7PYqcKx57eu1uTVmb1vNiPe7XG86CzPVnNDZbhcfNpqfdi7ohMJN82dSN/zkKhQlpGCTixGu35wgyf7xEgZJFh2P+aRS88kM//qv/D4XfDLDdHdP444evc/HISW3uYCnj2nbp8ZXP5vRPgX9lL7pfgsNqIKfZyFFoVTMyr6lYhfJTzv5SfHU55n92ZCOXyi06NgEPUohJvyMa0lzNvYhvnqc+HMwH1O9vSz0aDu+Ku7quc2esp9Sh+6no+UdOrU9tr2z5f/5f83PSH1xWtmFXtua5FyFywM1cNPij4LOzT/F6E2+q8X7Rgvmm+KNDTfHew++vZoqCjo+GZS77MLr7PNVqvM8FAfCzymv/6TS351nn2XTSES93uMzRKrniFhbbX9/hgJGsufTT9PV88f2dymfLRPuKFRsqvHqQkfT/uJOxtBfej6KtcE9E0WdX2K/9Pvt//0/6Rkr4mczXrNj5oKO9On7MeM6vRb7O56dVB5vngFj/WywLNt/mH4u9BbsTtwio+rnR277tbH8Pve8mVIrNUOr7dIfqw1rV+t8t230s52qfc07WUubXdy83cknrUd7rH7GTtZAtjMcX3Dw/fZ8UaPH3eb97gWdXyShjgWBMrG6JblWBQmVROUigdr/wAXf/kUClQR+lQsp1+3QSadrk/vIxREpxsU+Uxz1GKrdy9fTX/7zb9Pf/bNXwjEhkb3WPtoRk1dJfJ0N//3v//J3cfliTnEnltgVk/eohWx39u2vL19PX738LTwziAT59kRQnWfC18VI3ieNJW1IQUXFQJ6Tpfr6yutUaUf9nEuKOb4QlNp8Pf3z304TUjyRceL1oxpfNCLFFxlLtUt9ueKQ06gcU/q3qGHVTyqmFvYELctzqzQ70XsYX66Fo17HxH9e03k11Dx2jrjnhV7HAq1YeF85vvc4ldDcZMeJ2jnt9/jmk5xG8tPTlmOuaPFEWumNY6+mioKO59BK8BrszPlrtfnbjx9mH5jsE1arY5OI+mN0YeGXD/nBsObYP/6MCXfqs05IU5Kcjmn4FPspEtlUzNDJbBxP22c0dNX+WGyyiX/5s1TrUy6qlO0649UcM45RPKulZmdj+4ePvS4KlCyv+r4Yu+inZuvbuOKXxCDYXXL4MlXjLo1V9ftlqn2LxRCtG6XF9phlwcees6FYJb44djEOlc/zjKXPKjbW5+hjoWkfv2xj5UPc7x+yHHVdHWP0Lvbs8bp/QcctSlOCox60enOCbRIdlUiFIpHZP8xiOCfPZWJ4bYGc29g7KFoJp9+WYqiSYpUEX7u7Z669JLR6TJ3MyP7iJ1cS96Sf6Iv97AqIphCk++b9NX3EfcI6FWPD+VvFq9KG1Zfrz25rFFDSeF+XDz2Xcznt1xrU15e4PR2X+5FCUdZEhz3xp6GuqDin4foOnYY96jwp2WUb0vZ/fX3lLruOmAkrXm8vYMIMZgsauGmRZhK9ZtvWIvOBC8SmjTva05t8V4v3HW18NCPGL5PmJR69mlqnoNNbVAg++ORQJ8hOxyYRvaZ1t69IUF17dd2ZSz6v9Rl4NvwwdiXuc9vjOXl9rFAksAWJ1Hfsw/rh+9RJvz+uYXNsX/bXGjMWEkwsinG9n7r4kAsQVQw6fF+KndVB8kHFVwogll9hdyzEVTbqfrxvubARxip52j6TPd5Xx7QuulyN/Zxu7Hb7uRnTWPzS8TPt5mwptvs2OcY+Rp8+TN+mAloYp2I5Y1PJ6LbrVk/bxxR0ZJGUEj/9k4neJKVRsCn6+4/pL/6vOPX29yzH5cR47YJOKnoYzvkvDOWxU0IqsdavzfbLbVsFnZSYmyJD9j0nyemOCW0L7/uTtlQYyXetuJhUsU7xlUJLKwZ2WyP+qZ+v31fQafSTdNMo/F0rai6eA4pR0lsaX3g0fI06THbFu+v++dE+7P1ZrlP4kbTENaj/GnQwVj2LrHSMXjA3Fnx+gVx8I7z+gi/Z0hj/iPt6k+9iEX4S347IewSbejVVJ9BlQjvLyp7n/rO+i2L+vPbXAJ2EOi2bRDR8dv3ZhDkWIdRPseTnRnIHh09IG3+Ke/n8afju/KqKKLmoYYsKiZf3p2W/a9sqrgRe3kbtmxq7bX/D5ua1oTVmu21RxEhxdb6U/2YT/Fnfl2PnC3PK58Sz0Fvox7Iv7Ja7XozNwYdYvLCa89xKJnNa8nYlP0sufgyrb4lJr56attXnVKWJol2bk7e9sENrw7Vx55xu2y5cpdiIbzu97lzQaRRh/vd/JpvE9C10l/q68kDggy0K+/ztT4BS4ePqM3R0fx3JtWcWj3NJcJWkuv7mE9Xg47X2uW2+a0LbmH82o/cva8f6Vva5Nvun7k8VK3IRxz5Dp3VHSisGdluOf+q7qTEVv2SPFEriPtsuff46FYaSbm4u6FzT8MxfuUrji50NX9M1SXH5+Lfpr+rnZ0+treS/ii/bTlvoGEWrNy3cioV3uQANyUr+JvCmfndaLD7CJqejnnGrxfsTM+nhwTHl+aV59GqqKqTM/OxI9+3fz5znUrCV4krV7s/40xib8BaJqPLLj6MLIzrRVMepc2EuCV8+f0LfRaGiSHz1eMt2ZE7afteHTqBjn1IcUFzKAkXjbgzvc8NmxSLzb4w5E+ti3Fn/NYuZ93fEbu2Cji36ZB6NImKD55yWfD8+ZjfOZ7M8jZ7mzgcT20rTRTvTp25r7Ej9uPaxoOZ14PRoji0Y6j53er9/Qec/5TkWeuEuCU5OuJYXhO2CjmuXChopWdNjDfA+JbrXfmakE3GVRPpnnEg89N0XZluVpDqu5pgiITP7Gu2X4pb2659ONfoptWN9GyD+BfcV/VW6SkWX1lhVTFoxsNuMPly/arx0t4seL+2XQkn01Y6fjvu6LugkLXXYY/Vtx5mzuTqu4avyK+m8+xlYK8ZY2VGeR4wBDzRgNXDTAs4v4utFrl8wtr553WkReJMPO9vkePfYlxbdO9vXYxvHzCS1D4pVr6bWLugEHbSKB5lPUTAQPv66Ye/GkTZl0WLpPGhfa0If+uGztWbLcfz+IkEWe+aKAWq/+OVfbb81nxYTu63tt+17zoZ6TPnpUlHAkoKbXKvn/C/8mxvTbS/ta/ug2s/owLNIPwEq+5Q42rgvjtX0rezbxkDGCq8tpsqXFqPmmA09zR1n+qx8NO2q/bF9tT0WbX7+8Zv8c0bX13ffT8U2M37JY8H3ldo+pKCTH1xcJmApSawSoNZCcr6gkwoLqqCTkiS1zS7OnupzYtgo6vh9X6fktk6cc8KZ74bJCa+LU7rDYeavBaVYpgSxo31KvFUh6V9fp5/0pBi6JDw9W0TZmmKrtZHHbRYFkn0tjbGtOCda8WnxS8fFQovSYtJFOkYKvCqOqciiirOpuOGOi9pNfbhxVMzTeLnQI9opf06V9692DiSbxK/WHUvZ13AufT3lny2qQpbiUMShxZxt3M2CBnbXwE2LtmZBxy1855K1fRaBN/mw0sKzd0x33es5tlqE72xnj40ccww992qqLujM3Qli/CrO81+nHz7pv8i0kOj6pFM/uyQcr39e1XpAcCo8+LF1+5AQf5SfWcX+0/FSpHA/v1F3wLS02jrH/LZUTHAcQtJ/ra+r9psih7ej4CkJ/qX4uVfLNtd2bnvpX1moCPta2+zDhaOvUuCJ15zSv1Ib5T4zxlLshK0eL8ZT3/VVFnjkGUolr/BcpSWd2HnJ2BvvpipirR6KXGvD8Zt/IHiK15KevM/WtpJz6ktr2rZrnAuBi+27PgflTjL3EzJ9p5P3Wcdn53lo/4JOfK6NJFj+rxbZnwY1ErIioUn7w7N32on6P6a/pgRfJYZqW9Hnky6GLef6r0Tl5DLE4uvp7x/LP6EsfHVff3E/B5Hn1kSmer/rKyXvka3e32rv46ES4trWXJzJhSZXdFHbvU2SqFvfVJL9pPHeStM6dkEn7twTznXhqzj+5eusFd/GxmVec86foi8zZl1YNFpQ5/t8P/326D5qDdf9/NNqU+xROrfnifgs591WMaXfWrcwgcktGigTg3pRWey3iYlb7KUFeeNZAw9cGBZ277wo1WO7WOjPc+/7EreF+DzQzzm/2L5+zHo11Sro6PNVF0WKOBXneUz61fNKdAJYtIv6Cwm5XA8+TD+bRDQkyrJ/7iHIeb9O9v145prj/Og6f1Q77fuiPea8Wjw+FjZ0sly0iXdG6Of3zNo/Y3PFvRrTFi+CDuu7Uur4ajZ2nMIP+XPamo+yo3imTTrGjOfmiEJvzk5zzKef6r9y5fq7NpbRXPCjxUSKHaK38g5U629R/Ek+lee4bVPxbNpW9uHsrTTRaqf00eYd+vV9mfk42Nnw1xxnNbDl550LOiwWb1kscix6QQNjaoCHIY8Zd873c8V9y8UZfX/xd1z1cKgW7zPJQk9fHFMnR8/ExF1jn8kffHluvS7GtyroDM5j4Gs/BR3u1Nj9NnWSlnMlLcRr53j9m4cho7mdNcc8eNc8uLjYHnhxuQab3uSbgg5JXK/eejXV2x/Hob2HaoCCDgXauM6goMNC9q6FLAkXCRcaWFED8hOsl39M//3RPFOHaxTXKDRwSA08dCE/QLGoN/kOt7+H2/6XftJCzMZOwHs1hU7G1slp4k9Bh4IOBZ0VkzEW24dcbFNwQOPn0UB+9k/rmTrn8QPNEatxNHCaRf9Jiz/uXIIxifWaGkBT6GlNPT28Lwo6zBEUdMZZdJJgEGs0gAbQABpAA+tq4OGL+ZMWanq5Ob32HstxJOo9GkBT6KRHJxyDTs6mAX5yxd013F2DBtAAGkADaAAN3KiBsy34zmYvyTdJ1dqaRVNoam1N0R+aOoIGKOjcuIBzkwH/YIAG0AAaQANoYGwNHGER98w2uPPrmf3Dt/0TQTS1P3N0DnM0sL0GKOhQoKFAhQbQABpAA2gADdyoARap2y5SSb635TuiftEUmhpR9/j8/LqnoHPjAs5NBvyDARpAA2gADaCBsTXAInnbRbI7v2C8LePR+KIp9DSa5vF3DM1T0KFAQ4EKDaABNIAG0AAauFEDLJS3XSiTfG/Ld0T9oik0NaLu8fn5dU9B58YFnJsM+AcDNIAG0AAaQANja4BF8raLZHd+wXhbxqPxRVPoaTTN4+8YmqegQ4GGAhUaQANoAA2gATRwowZYKG+7UCb53pbviPpFU2hqRN3j8/PrnoLOjQs4NxnwDwZoAA2gATSABsbWAIvkbRfJ7vyC8baMR+OLptDTaJrH3zE0T0GHAg0FKjSABtAAGkADaOBGDbBQ3nahTPK9Ld8R9Yum0NSIusfn59c9BZ0bF3BuMuAfDNAAGkADaAANjK0BFsnbLpLd+QXjbRmPxhdNoafRNI+/Y2iegg4FGgpUaAANoAE0gAbQABpAA2gADaABNIAG0MDJNEBB52QB4xvhsb8RJv7EHw2gATRwDA3cu4CiXR8Bp3P+g8CaBNDUmjTpCwIQODuBr1hQHmNBSRyIAxpAA2gADaCB/TVw9oXc0e13muY/CKxJAE2tSZO+IACBsxOgoMOdPdyOhwbQABpAA2hgWA2cfSF3dPtJvo8eofPZh6bOFzMshgAEtiNAQYdF/LCLeLcg4B8M0AAaQANja2C7JRY9OwLu/OI/CKxJAE2tSZO+IACBsxOgoENST1EDDaABNIAG0MCwGjj7Qu7o9pN8Hz1C57MPTZ0vZlgMAQhsR4CCDov4YRfxbkHAPxigATSABsbWwHZLLHp2BNz5xX8QWJMAmlqTJn1BAAJnJ+ALOmd34gz2M/mcIUrnshFNnSteWAsBCEBgRALMVSNGfVuf0dS2fOkdAhA4FwEKOjvFi8lnJ9ADDYOmBgo2rkIAAhA4KQHmqpMG7sBmo6kDBwfTIACB3QlQ0NkJOZPPTqAHGgZNDRRsXIUABCBwUgLMVScN3IHNRlMHDg6mQQACuxOgoLMTciafnUAPNAyaGijYuAoBCEDgpASYq04auAObjaYOHBxMgwAEdidAQWcn5Ew+O4EeaBg0NVCwcRUCEIDASQkwV500cAc2G00dODiYBgEI7E6Ags5OyJl8dgI90DBoaqBg4yoEIACBkxJgrjpp4A5sNpo6cHAwDQIQ2J0ABZ2dkDP57AR6oGHQ1EDBxlUIQAACJyXAXHXSwB3YbDR14OBgGgQgsDsBCjo7IWfy2Qn0QMOgqYGCjasQgAAETkqAueqkgTuw2WjqwMHBNAhAYHcCFHR2Qs7ksxPogYZBUwMFG1chAAEInJQAc9VJA3dgs9HUgYODaRCAwO4EKOjshJzJZyfQAw2DpgYKNq5CAAIQOCkB5qqTBu7AZqOpAwcH0yAAgd0JUNDZCTmTz06gBxoGTQ0UbFyFAAQgcFICzFUnDdyBzd5cU2+v0+XyMn3+cmAIxrS318t0eX0zW0/48cvn6eUe9j5mr9MTEDhh0JZN9vq8XKbLy+dp9rTysb9Ml8tlclJ+Gk0v43n3ERR03o2wr4PNJ58+MzjqiQigqScKJq5AAALnIOAXnI2kwScTYSHqFqNXF63n8HQ1K5fnqi/T5xdhd64kejVIdHQTgWVNxe7eVRw4lxafJvl9V8wa1+ablMXBWxD48vmlY058m15jIUdseBpNi0MbvlLQ2RCu7rp78tGNeA+BKwTQ1BU47IIABCCwJoGiYFMnDV8+f1bfDMcCxbVvIte07eB99c9VbkF/riT64Oif1rxuTVXFgXBuvpzp1pvOKC4nvyfxvYpZDaBZIOAOnRrUQbYsa3Oapkbcu9odxMdHm0FBZ6cIdE8+O9nDMOcngKbOH0M8gAAEzkBAfXPYmzT0HncG999pY/9cRUHnnaiHad6tqSpJPElR445ILie/J/G9ilkNg4JOzeTIW5a1SUHnvfGjoPNegp3tuyefzv44DAJoCg1AAAIQ2JlAb6Gm97idzX/EcP1zFQWdR8TnjGN2a0oXB/x7+WlfeJ29U6c6f0MxxP+c0v2k8sqdZL7YYJ9lo+2IwH2S6/sKthRNrK3FTtdBKDIne17frj9vxPZ3uUzad2+zsqXvWTzGBnNHoiTxZd+tuxtf/DNTgi8v0+e3a8/QsXFQP2+VmBlfK3Rm/6Kv9viWn4ld4w5D0/7l85v/iWni7+w2fUp8re2lZsqxenlPnpM6D4qxr8e0fa0wbYpzw+4rdSf9lRpxtgWdiE9ynHutjtWQRAOqQTi+1J3rN/FXx575LQWdnaLXPfnsZA/DnJ8Amjp/DPEAAhA4GYHGgrH2ICxin23BWPvZt6V/rnLcyiSlbwSOGo1At6Z8Mq011XmXijnPbWL55fPr7AOTfQKpk0wXHGOHP0Yn0m+v/iGwPo7m2GmKRYzUZ319SUluOqaliLbv3reYQIdWcTxtX9VdsEEP5/tRbUK/OnG2fkhyrpPt0O+1gpkzpeLnNkqhQtkQuKj+F9laR62fX6bPr/mhvlYXwQalNz9eeMCv9FxxcXYrm8NxdtzGA4K9v3msqt9KN8I7t/HaSv7MjFnZJp6IrnWMcxwqbegNqov0topN7XPwUcVTfEw2Wh+i5opn89hjkgWnfkNBZ6fwdU8+O9nDMOcnsLmmzGRxBmLV5PoAox9tgx8/TW71hLgpksaEvOl4B+rccj+QaaUpA8eoBHHnJ39d1AtK6ScvHJeSEWkxymv/XOUW2jrZGIUQft5KoFtT1fUunKeLxdbiPO9sE53wRQSbvBo7rq0T3L7KPmVPs5jh8+ilv3LV8MPYleIwt/1WH9VaxDdVfszdhWKLX8km9abJwPdtrx9l8r7EVg0R3l7j4PfZuaBk3I5zeYwvAllO8Q6sJKPesWw/Pbyj0z26tXza/tXrzrnjiv4arIt2jf2+vdnu2qTzJ3J7bWx7tr+Gdl9BJwJ6NhiFsFb+0D35rDwu3T0vgW5NmYtdN5Hm5Njd+iEHFhf/h1hQT2R7m+EZqEl9Vyb3am1vSBuMZ7lvMMQ6XQ4co1UAFgvkuR7Dgl1uG587apTt3XOVT2JsQjYKJfy8hUC3pqrrnUmm5wa157n/nH8KMtfMbe9KjL1drj+rd7l2qJ/EpJ/zhOKBm2tSwqoMWZ7rG747v9R6IXcXjk0FhbzDv/NjJbu0rdmfpj2aq2dgCyJy10fuxwztP84XdGx/uqCzzLY1VvLVwkia0P6H9yE+cwxNHJox0Hbnu17ST+wUe9HC3byj08lP1Xf6GVzz74zP+RftVbpq2mZhV+eqWU83OblOSjsKbbg2Lm6qbfP8tLac8PNtBR0HJAXanjQn9H5Hk7snnx1tYqhzE+jWVHWRNJPJuTEU1i9PGtv7vmxDYfLmHzazx88HZh6otLa5ewxwKwFidCux8viW7ssj4iezIG8eM8bG7rmKgs4YgljBy25NVde7zjXAzHnuk0GfB5m5T/nUTBgrO2KDlFdJAaNMTlW36a2b0yWJTxvvvUPHja8S79zfdTvmbMjtTTIuOzRXz6TBcY6V9CFFM2u37jsdq6/D131KTZpvQlufA0thZ5addDA3XtieYtjsR9tdF0hkBP3aXOtpJnO8Yyc9MdXj2UJKsc/41LStaNAu5BXtTJ+5ueGs9OPah3A5nu4cM8fmTk7/7oaCjhKXFsjpEezjQPfks485jPIEBLo1pS5uwW0zmTwBC3GhuPjLxuJ1e9+XbSgM2vzDZva05oFKa5u7xwC3EiBGtxIrj2/pvjwiflJrpub+cTZ2z1UUdMYRxTs97dZUdb3rXANcPc+vn9vFHQLip+9PijayUV5Lm5bmbL/fFjPkWSJSbJCui9dyHL+r4hMbzG1Pu19mCkF5wKYfmqsfQxLu3K56Do3aJW/nGdsCURmrpk3Sac9rZf9cTF1ngXf90OVgU1HQKZ5hJMUNxWYhHm60pm/aXvszLuNvk6k5xn5sjtmwZe64or+Gj0W7xn7fvtoeuL++Oc5ZD64vu60Y/+QfbijoKE8LgajtvJ0l0DX5eFGqE3i2N3ZAYJq6NOVA6Ytd1Fi+0679TY/nW53ncXJKd+nNT2S931D5i3Xqz2jf2lotVMKkmHw5wl95mLHB85jzUyb9tN9yNX7KLdoSV/8XIdxtvmHiKiZAPbH6eMqtwXYM0Ynsv/5bfBs3GTtrrbQ5LVzSiVvub39DmA4Ot8s6/7QPcUFbsK0WuXGRk9gajSWNl/aU9uZFcDGWWig4S+e4X2vj2pX7+/7CR2mfH316VQ/9K/s057joRm6hdgwqboFHecqVjOo2Kl7P/DZpRjv5Nr2WsIIejEZ0i5Hed89VFHRGksW7fO3WlL3eNa7VTUOK87x8EO7ss1+ko7h2yZcEuXbmefftNSeakvin67of28xVXz5Pr5/jRTv2n47X80geVDhHP3sAACAASURBVKwpXu085XaG+by2py5EqK4aNnguavzWWKFYk8eqx65ZqVHz2yI+cXNrmy1iLLHNI4R3mrvbUowR18Rm/ixi2xgv+Kzn5eBzjmdea2ecy2P18A5rg6xDrz15KHJHTC2esObTvggjPUa9Pqr6cRv8+Nfb1XqJXDIo33VaA6ntaZuOV/RZHdY07QwbKejsFKWuyeeJhLUT1qGH6dKUI1RdJMMFME8eMxiLiau+IPNXHuwkrJJzNTv4SeTKBGIn4YJrvCboWKX9cZ9NrG1/YQIsCzTVpD6jkasLOqMPryKxSSey/jg9SQduClFYUGpGVpJxUZTtkUWf9quOh9N+WgS7Pq0t0q+2t2KeF1c6DnZhMcc9t6kXHiEOeXEriUL9XIUMpNKTLOYTP1NciP4k3jbWjkFqK+PYGNnP8XpQtZP2T/zqNaNj5nzNGkkF5hHZzIS9e66ioDNDkM2WQLem7PXOdRSvie5czddnM0Jxntfnd7qemmbyMVzb5QuS1+nN2JHm5fhlQ2VHmptUH9K5e1U+iB92DtKHp/eqnR5z0Z7UgXqj+grXPT3P12tG37LgGvoqx65ZqRHVWxUTudY2+pY5tYjXEls1iuWcvrxKxyg7OmP5+hbaaP5hbSKxdhzrObc1z+g+mvFvMCm1ac6BhZgmt/Wbqo2dH2e0oPtw730/yxoq9WLslz6jTUXc4zbNTOJbHCd9nOyVgs5OAeuefHayh2HOT6BbU9VFsjGZtHAUE0Fnm9iPnzDsFdLY0Zx8Ynu3r7jouu3KnlZSGw7RCX7srHhp+GHsSofPbY8H9NngJuVygnLNs+8Ne5IB+ji1Ud56+8y3eEXf4UA/lix4pG1MQIXxEu/UTL9R8UibmzaVPvZoI/Unbxpj+X50IcavB5ZuAzeLJN9vHZ8ytsH+XExKRhV3xeSYhv1N7oUfxhbpdkF39aKn5Cvd5Fez3/bvbKr0Udp2V8yyAbwbnED3XEVBZ3Cl9Lvfr6n+PjkSAvsQMHPyPoMyypMToKCzU4CZfHYCPdAw3ZqyCZxJ5meRFcmnFFTcNwh19d320ZUAxuS/vhshJtDqZzLpW+84drMA0ShmWLvkGw4pZPj9zYTW7Ql22LqU9NllQ/JRvnlRr9Kx59zien38OrEPljULCzKWGF+wWuatmuW3Vh9uT6U1v3H6/JILdN6+ZmzrwkoarDFWWXQJR7a2yTcwWUOqCNbo1/dUbA98Cs34g8rtXdx1v55V41xqMkwkonmZZ/DP9hMKMtrnZL/t39m0UNC5K2alyXwamED3XEVBZ2CV3OZ6v6Zu65ejIbA9gXLtsP14jDACAQo6O0WZyWcn0AMN060pm8DdW9CJbH3S7BNym0Rm+F0FHTncJ7muoCEJfZjsGjUIaeHvcEkJatq6cEeLP64xkTYTWnfwdTtckrtow1zSrmyWtzXX6+O3iyc1A1tokPHy9oVxpIF91cUJ2Vdpze0omc9xky6ar42xWsUbu837mHTlei7vPNF3fRXjFuOV9ufjyu2ZZzjCfvZbdb9z2mgyzKOmfmIRxp5roqN8/pR2VrpxNnUUdFpaN1bxEQJNAstzVdBo62cbzQ7ZODyBZU0NjwgAhyVg5uTD2olhZyJAQWenaDH57AR6oGG6NVUliJ2TiU4+K64mMTb7bWLtd/v+pGhjGjSS/vonLrmNT5arJDQmBTmTzQ3Su4bvFZ948Nz2uLvPhuucklnpTXl8syggx87YZ9vYz6H5DePIePa1pY+mTSXzpjZs3/ZzY6xWP+W20sfQpdnW6NcdVzIr7U+mGV/LNraP2EqP59uru4WkY3/M3HmSDpr5E5wtW802Y3ezqGVsK7mKDbxCoI9A91zV1x1HQaD/j0LACgKHI2Dm5MPZh0FnJEBBZ6eodS1ozCJ6J9MY5qQEujTlfLMJXJWwzgDQyacruMiT8P3hJjG2XVRaDsfnu3Bcwqvv8DETnB/bJLv6Abexf33XgE863Z1DVws67UTbJ+PFT8mCPVf76rSh7tuF5HUKf7BigWtzjNjW76sT/2ZhwTz8sbJpibeNr/vcGr+1zRTrQjt7d5N5kK8dr9Bi2NkqMpTbjKZE9+qvQaUHEeriYMUiakG3iz7pO1ua3K0WjR9VHOIdRPo8sSjks/P15fV1etG2i49qXDkv0rlSxSicm2m/+Kb99W2uxcz2IVbyCoEb/iIjsCDQSaB7/dPZH4dBAAIQODMBCjo7Ra9r8omLZrUW38k6hjkjgS5NOceqBE62hee55ETOUCiSz5zUynM5lnQqiWQ4vv7LBSGZzc+UqeyIibWMVz27J54vst+1t0m18Sh8VO30mIv2tDpTfTk75mywfedCUQdXM0YqIvjtnQUd+XPq6dk1upgWHVvi3fA/+xX7a9pUF1akqCOxWyxgFFqUMNYPQC4LOqXO3Vivb6YQKf0a30tti/1v/llAyeaFQkpTizKeYpkZxucoNRmqBvI26kJrOOyS4qmc38HudFyr/8J/pynDyXUcx0v+N37KlsYQG3mFwERBBxGsT6B7/bP+0PQIAQhA4HAE7ivoHM6N4xvE5HP8GJ3NQjR1tohh7+EINAostY1S0PlS79piS6vgssU49AmBnQgwV+0EeqBh0NRAwcZVCEBgkQAFnUVE6xzA5LMOR3rJBNBUZsE7CNxF4IAFneouo7scoxEEjkOAueo4sXgWS9DUs0QSPyAAgTUIUNBZg2JHH0w+HZA45CYCaOomXBwMgZrAgws6b6/mJ3Pxp0/lT75qs9kCgTMRYK46U7TOYSuaOkecsBICENiHAAWdfTjzRP6dOI80DAuakaKNr5sQeHBBp3zOVHjmDcWcTSJNpw8kwFz1QPhPOjSaetLA4hYEIHAXAQo6d2G7vRGTz+3MaHGdAJq6zoe9EIAABCDweALMVY+PwbNZgKaeLaL4AwEIvIcABZ330LuhLZPPDbA4tIsAmurCxEEQgAAEIPBAAsxVD4T/pEOjqScNLG5BAAJ3EaCgcxe22xsx+dzOjBbXCaCp63zYCwEIQAACjyfAXPX4GDybBWjq2SKKPxCAwHsIUNB5D70b2jL53ACLQ7sIoKkuTBwEAQhAAAIPJMBc9UD4Tzo0mnrSwOIWBCBwFwEKOndhu70Rk8/tzGhxnQCaus6HvRCAAAQg8HgCzFWPj8GzWYCmni2i+AMBCLyHAAWd99C7oS2Tzw2wOLSLAJrqwsRBEIAABK4ScNdS/sEADaABNIAG0AAaeKQGri5WruykoHMFzpq7nDj4DwJrEkBTa9KkLwhAYFQCf/z5ZeLfdgzcXAXf7fiOyBZNoacRdY/Pz6/7e9dhFHTuJXdjO5LvG4Fx+CIBNLWIiAMgAAEILBJgkbztIpnke1u+I+oXTaGpEXWPz8+v+8UFy8wBFHRmwKy9meR7baL0h6bQAAQgAIH3E2CRvO0imeR7W74j6hdNoakRdY/Pz6/7e1c0FHTuJXdjO5LvG4Fx+CIBNLWIiAMgAAEILBJgkbztIpnke1u+I+oXTaGpEXWPz8+v+8UFy8wBFHRmwKy9meR7baL0h6bQAAQgAIH3E2CRvO0imeR7W74j6hdNoakRdY/Pz6/7e1c0vqDjLoz8gwEaQANoAA2gATQwmgZYJG+7SHZ6gvG2jEfji6bQ02iax98xNP+ugg4i2V4kTD7bMx5Nx2gKTY2mefxF82jgfBpgrjpfzI5+nqEpNHV0jWIfGr1HAxR0Dv5nR5l8OLHvObGvtUFTaOqaPtiHPtAAGjiCBpir0OHaOkRTaGptTdEfmjqCBijoUNDhluaDa2DtCwULGiaftTVFf2gKDaCBtTXAXIWm0BQaWFsD9IemnlEDFHQOnsyzoOHCs/aFB02hqbU1RX9oCg2ggbU1wFyFptAUGlhbA/SHpp5RAxR0KOhwh87BNbD2hYdFMpPZ2pqiPzSFBtDA2hpgrkJTaAoNrK0B+kNTz6gBCjoHT+ZZ0HDhWfvCg6bQ1Nqaoj80hQbQwNoaYK5CU2gKDaytAfpDU8+oAQo6FHS4Q+fgGlj7wsMimclsbU3RH5pCA2hgbQ0wV6EpNIUG1tYA/aGpZ9QABZ2DJ/MsaLjwrH3hQVNoam1N0R+aQgNoYG0NMFehKTSFBtbWAP2hqWfUAAUdCjrcoXNwDax94WGRzGS2tqboD02hATSwtgaYq9AUmkIDa2uA/tDUM2qAgs7Bk3kWNFx41r7woCk0tbam6A9NoQE0sLYGmKvQFJpCA2trgP7Q1DNqgIIOBR3u0Dm4Bta+8LBIZjJbW1P0h6bQABpYWwPMVWjqOTT16/TDd5fp2x9/fdB6O4x/+fRTHP/R9mRd//zpMmW78va1436o/n75MF0ul+ly+Wb64fden23MbEx7+1nhOG//LbavMOZgedo9eqWgc3CRsKDhQnDPiX2tDZpCU9f0wT70gQY20MDv30/fXj5MP19dc/w0fXQL/ZR4bWDH1fGPNV7vXPXbj9/EBOkyXb77fvqt8DEw/fjLsXzjHHtMPHo19Yc/X9dKWm0yvrfvNvl/tD3Z/+EKOnfrysbMxjQz3fzaQkHnQYXZ6zGmoFNM/NdhbX6SNGzpnnwabR9hL2MeT0M2Jmjq+DGyMeMzMUMDJ9VA+jbWfSN7vaCTChMUdPyCuWuuKgplNun5MrmE8XF3RpxUs0+8nuzSlPO/SrxrbfVfk9/TdgsNPcYef30zBdfhCjp+Prg+D7R1dZyYte3bQqf0eQtrCjoHn7i6J5+D+3GLKDl224sYmtqWL/qFLxpAA0ED6u6QpYV8LEx8HPEnCDPrl565yiWJRcHGcZaCmGNqEkjOzbHPzR5NeY1Q0Fn9LgQKOl+mP5bmgZlr4R9/UtDh2n392k1BZ/bkuQ5uL2F1Tz4H92MvXoyzrFs0tcwIHcEIDaCBVTVwdSEfFuvuZ0HDfWN9Ze3SM1fNF3Qc07V+MsO5sOq5cCXmW4/Toylvgy7o+PfuDrv8rygiWn/M8d/++FPzGTr+XE99Gq2aPqqfEvrrSbYn7ZfrjOz3BU1bDMiffZEl2dC4c8TaIcXS6HPpw2Vq/7QxjKf5ib1yvXuvHaVuwnjWlqqgZH0zxd/SNxMfG3P/ufZT21D21/p5qLrOGNtqDeUYFnr9xf20t7wbtGTbilHL7nqbxKwoSoneDA/LuvTdsrRj2f2KixmnjPvYx1HQObg4uiefg/vBSXecCw2aOk4sOC+IBRoYRAMzC18Xf0lq7PvRtdE1VxVcQ2LgkiiXUFxNulkzrX4Hxhn02qUppw2fUOvEMmhrUVMxEW8l8rqtPuc9N69jGU/d2ed1+uv0w6f8bKiQoMux7vqp9vt+7HO4rO05ga5s0j8LnWEgd8DZpN0l+tpvq4fqeLn2XfTPIqNtunC0YIcdR+5msbaU419nfD0+rTkr9CdsvE1RC5pxUQyZuwZ1acjENLZJRZfYd+mz6FoXdRp2qzhW7V2/xTXXcnRsym1LLO3+3378cMPDoluxGHMbBZ25E+og27snn4PYW19YxzyxjszhMZoyk8/uerWLhEfbk88LO5kdWTsPs00Wqbf8VYhqEZiZv8uPrn430FfXuCv5uPv5OYDdxSI4+2sXzFwPMpveucozlLsMXCLoz5Vwt4HnGfcViRUap6BzTQPV9bbvmt4+f01bpc88F6ljqrHzOWGT5dw+HuOvM7rY47arvr3P4XNRfPDb60S8OmfUdaztq7a1fG+vdc5234e5M6YsGMw8B0vZUTGI/l4t6FxjvBSfhm5avjm7qu1X7Q682lzbMUzx8TbrQo3ry8XTaqH8AqGyz/jW3G98qOzV+xdZWr9KzdSxZf8ckx0KOvHCIZNtUYklMHOBke29Cxo5nlc0taSBbk1dm/DMRX9pzHpBsXec7ALmOJNINRnezHZvljuPd68O7223xL+r3w301TXuzrFZYsX+nDTrRa5waWzjepA13D1XCU//Gs49l8z5ZCR9099ObpbnrmwPx56fRbemquttzzU9a6/Uimnrz3v1c6lGfuSvA2570m9k7+1q/DRKzoHGNaVefxl7pG1R+AnHFD+TSnbG8b0tzo+6aFD6H2xvFQea17vChw47kv2iz9DmakFHikktxh3xsf45P1JxRdtj41X4Jvbq17btizGs9JrvxmnGMOpq1u7oQytmtuCmC+iOS9FnD8t0zBVda6a8z+sKxWL7go66dcufAPECYE80e3LwOZzg3ZOPCirs9MWR91YP3ZqqJogw0TQnrUX9vaftFjF8jD2tybG5oFnkuQWTVp/lN3ZWS7t8XlwAObsbdlb6bfl3x7aufjfQV9e4d/hzGK09ue2VjoNGmottnzj1JUm7nIMP0kj3XKXsy0Ucx7dk6K61rD2f/DxTWmidG92aqq63Pdf0cEytMdPWXQvsXSlNu0M7f42Qwo6360riW11nXLzN+NVn0YQ+LryvfZFj1asfc7mw073+KXy4wY7EsN2mNb6wKRh3xyczKIoYyQ4pqqh4Fb7l9lmrbdvFzrz+Dselz5VeG2Nru+L7Wbvj/iazygdtsymc38DSj+XnPsWrYXNm1eI37rbtCzqNYBw7gTmWGLonnwZnRH+sWB4lHt2aqiYIM4HcpLn3tN0ijo+xpzU5Hvt62CiU3BT3FWJXLR5afTbsrPTbanfHtq5+N9BX17h3+LN3PEcdr0vH5e3wR5kzHmVH91wlmvLniCQD7hykoPOo2B113G5NVdfbnmt6OKa6qyZ+4XA1+RYNt16La0djrtNtimNlPrC228/xOOPzbWuTmT6Vbd3rH+PDbXY4X9q2+H7mCml6TMOhR8st31y7arseR7HJYwTbFzVkfWzavKCVln3Gpsp+t7/hgz/OFR3dPs24aZfosvW6bHNm1Wo/7jYKOka8RxNK9+RzcD+OxnVke7o1pS/E/n15i3BanLS0Z46vn9AfLrp+gk238ZaL73AbpxpTTxJpUmnsl8nGv8pfErATfP7sJ6JkgyQDalIwvtiJtvRh7hvgOEmnccSunMC9146Wpss+jW3CyfiXvpETfsrmsE/Yhb/c4b7Z+vj9h+miH6YYNeHHt3Er9FJzSePrW6LFhlZfc3Z6v5ymwgJB7oRo6baModFhYa986+WOMbbLN6j+eGH0a3FrrI2H1ZKPofVHfE7+iDbFr4ZmxWbbV2GjtI/nkIwjbWWxJ+zdbfX+L2goPq7/ql1rQXZtrMyqiEPVb1wcJ3vMzxGMjptslW+t82XTbT4WV2IVbfMMijhJvMd77Z6rPLugo+r6ISyr82c8npvq+5Hn1g1jd2uqoZeuczNecysdFo+biHOHucb9/CleH37/fvr4o5o7zLUjzCPqOuySe3losjk2xDxfY/VnP3f/IudBw6aGL25dJrYle9X515pfk+4atjWZ2uMW7Ej9Kx0ERup6G/tI85Xyw7cvxmyw8OsR1Z8aK4wf5zi53rj9cU7SWmgVQyr7G/7K3Jj5mpg29Or6De1Ku8uHDjfs1r+sKbhErbS2+aLlh+ljdRfkEkulXc9Urx/C++yzaJXXSjN/frm3njN91X1RnBF9IfDqGIIlwbqfMwyFIa+lFro1VU0QZgKZO28bk1g9GeVCRoqPnyRkkaIv6s7+8qK/vKAxyZ79NiN+dgsaPVlUk98MA0kWvR16UaYnwgaf6vg04Wo74gRYLQyETeTxnfWxjHM1lo1LXDSkBU5K4PXkb+Ogxi5+Nz9/nOabYu3ZhDbC0u+LNhZtmouH0tf5n1y5YoXyp9BY6MPHXLNuHFPYHW0snxtgfanPlUpbokGln6u6LrTY0IjVW3G88/Wn6WPys46Xt6+yRbGL3zIXfjtWqk3gZPu2n+O5n9pFX1xhMCUXoY3WQc1P+VP52sHH8tr6c5eOG9fFre06cP/dc5VcR5O+5fqQtVUmr7Kf1+LadmAtrGVnt6aqa0pO0O26obLNn+v5y6aPvwQd6uuZ3EXi+pJ/ab8fO28v5rAYozBX5GNS2+Z1xo4vn/OXMt6GdE1W54XxRdsSrskNG2Z1pM7HOJbvw563LR+u2FHx9+OrsRzjTz+Vd8ssMjbtzVqxPWaYtySexVwpTFq+yT79avytNSQxjIW/ll5jfzZOxZrLH2Pt1vO+4iD6mPGhnqNFR6qPqPekV1kHqfPg2jqgzV3GGfv13orOnQWdGFQRhRYv74tvckW03ZMP/Jr8hCOv+ULXralqgjATyIzmmhO0Laj4vvWk4exT/VdjZ/ubybu2xU82uvhh+vbHxmuRXUjEpFUmFOdLnniiDWoya/uqbS3fV0UWSUTsNVGN4bS7ZEetbzdBWwYmWWxyChO7+N9m3WbnfdM8mzHOPFosnB/VdsOi9tX1ae3Oi+/siztOaczpoGmjOUZrK7XRxYfoU2Gn6WNOz8X2hg967HRs5G81o4917wt7MvfEWMcq+SWambEl2aB8ruwo21a6qMaK/hh7Ch3YcY2vt58fJY+2pjjm0Vy65yqjh0fbzfjHPXfQ1HFjw3lDbNDA/RrYr6DjF2TXv1EmkHUg+yafsIC+WhVmwUPBJ2qgT1OS7EqC57RpktSmpsIxZRLdaOuTzfzNTtZuLqD4Ykn8ZqW4NvhriS0GqXOnmcha2+1naa+3h/fatvw+ji/XtUbxpLA5siqS1LitWRQqfOiww8Yi2dVgLIlzMYb4XybjzULJnA5MXJqJvLKzmYS7/aafa4WJzNjaLf1o/d6nwzxGZOTts/3a8bSOYnGlKnxke/z5Yv1WrLwNcdxv3Z1Zzb4khvKadWOLkuncUt+KBW1Hv+Zssb47DVW2lLFYHGtGT8W50hyn9jOfn6L7K9cJy5fPh5sju+cqYne42FXXzYPECE3JdZPXo2oUu9DmPRrYp6DjE4fGN5oHucDfA26vNkw+nNhra61bUzZ5m0m8SvtCEtlV0KkSwVasc1KabhOdSzbletIsVJgEe9YXfdycLw074zWueYut2NW6+0Tu0JEiixxb+HCDHdJ+iZE7rhhDfCqT8ZsKOpFpiL2zuVH0EPvm7jpy+63tTTvFXnm1dks/1gYd32uFFum38VqdF/GYYnvvOCq21m/Fyp9jfv9l+va7b8qfkdnjqs+BjSt2SGFntpgmbedsKXyc41fGYnGsmXPx1oJOfc1pxE784/UUBYDuuYp4niKe5VrhMecnmnoM9yPEHhuI/TNrYPuCjl+M20U1ouoVFZMPWunVSu9x3ZqyydtM4lWOGxLUVHxJC+2Q5ElCGZL2G64LRVJfJozl+HOFCpNgz/lifPZ3F9hiS/LJatOOYfc3fk7UVdAxP5WaHV+Pt8DI9VEwlba2nf3sjrvip+vT8XIcFwp2RcKufKq2N+0Ue+W1YaeJZdCJsb15jPQ58zrTprS7c5yir4YPios+Z8JdL7fdfaLt0++r88eN6e1qfAnjY6HO21ZsTNvFsWb0VLQrONVxue08rds3GWj2vH9IwaB7riI+D4nPGc8bNMX174y6xWZ0u6SBzQs6y9/OEaRrQWLyQR/X9HHPvm5NNZKorsTJJ3llMhgS0HyHgBQF7M810l9NuPoXCOSv3ajE0iWF/JWHYlEfmJdJf/HXDVrJePUsGlOY8IlTa5ucp64o8WH64cdv0t0g8xoNBYyi+GeKAb5t004ZT14bNjX0K7pLhcVYTJjVYStRjDbqh0NKAcT2mz/Hopx+QLOMrQqGvohR/HxP6dr404pvwdo8oLsukOjz0XFUDxmWQmNhb4xXYV/Ylv0McXB3A6U7ZiKvfIwdqxG7xt1stb/K3sY1x8VE/hpL4FqeCwWrVpzZVlxPHsGre64iVg+P1SP0cc+YaErmTF7v0Q9t0M1RNbBxQScv7urftutkDIHMCYTJB23MaePe7d2aMgmkHy8lszYZNHGKCZac9/UT+t3x9fUhJX1qnNBHnYyFJE2elaHsaRYAbNIon5/5rzxIESEzKoonTU4hQU/JuEuUVCzzz6kUb5NM1Ym30UZxvBQJxMbGvNC0s9GntbOl36i5pDNvyxUdFrbGMaVf/ye8xW7LQ/Sl/vRsKpLMtQn9z+paxv1dfM92F/ESmxUPfw7ZO6aqc6xmH2Ip9n6Yfq5sKPURfnLY0NDVsdqsigJU9Km0RxWN3H7rrypGUdARzZzrtXuuEs3zSmFnQQNo6lzXgHvXubQjzqNpYOOCDoJ6r6CYfNDQezVk26MpNGU1seZnn3Sru07W7Ju+HqzdVkFnIYEiZg+O2Ynjw1yFdta+fqApNLW2pugPTR1BAxR0Dr7YYfLhQrH2hQJNoam1NZX7a9ydcfBrbLYdXSyyoKDDHRA7ns/MVVyTFq9JN+oRTaGptTVFf2jqCBqgoHPjZLB30Jh8uFCsrTk0habW1pT01/qZjOzj9Ql0R0GHgs6Oaybmqie4Zuyol545Bk2hqR6dcAw6OZsGKOgcbLKxAmLy4aJiNfHez2gKTb1XQ1X79IyU+llH1bEHv+Zi75Xzg4IOBZ0dz1/mqivn4o5xeKZrIppCU8+kZ3xBz6IBCjoHnxSZfDhZ5WRd6xVNoam1tEQ/aAkNoIGtNMBchbbW1haaQlNra4r+0NQRNEBBh4IO3zgeXANrXyhY0DD5rK0p+kNTaAANrK0B5io0habQwNoaoD809YwaoKBz8GSeBQ0XnrUvPGgKTa2tKfpDU2gADaytAeYqNIWm0MDaGqA/NPWMGqCgQ0GHO3QOroG1LzwskpnM1tYU/aEpNIAG1tYAcxWaQlNoYG0N0B+aekYNUNA5eDLPgoYLz9oXHjSFptbWFP2hKTSABtbWAHMVmkJTaGBtDdAfmnpGDVDQoaDDHToH18DaFx4WyUxma2uK/tDUiBpw11L+wQANoAE0gAbQABp4pAYo6Bw8mXfiGHGhjM/bJYhoaju26Ba2aGAcDdy7gKJdHwE3V/EfBNYkgKbWpElfEIDA2Ql8RVK4z6IVzvtwHikJQ1NoaiS94yt630oDZ1/IHd1+ku+jR+h89qGp88UMMb98AAAAIABJREFUiyEAge0IUNDZ6c4ekm+SkbWTETSFptbWFP2hqRE1sN0Si54dAZJvdLA2ATS1NlH6gwAEzkyAgg4FHX4KtpMG1k6UKOiQfK+tKfpDUyNq4MyLuDPYTvJ9hiidy0Y0da54YS0EILAtAQo6OyXzJN8kSmsnSmgKTa2tKfpDUyNqYNtlFr2TfKOBtQmgqbWJ0h8EIHBmAr6g4y6M/IMBGkADaAANoAE0MJoGzryIO4PtTk/8B4E1CaCpNWnSFwQgcHYCvqBzdifOYD+TzxmidC4b0dS54oW1EIAABEYkwFw1YtS39RlNbcuX3iEAgXMRoKCzU7yYfHYCPdAwaGqgYOMqBCAAgZMSYK46aeAObDaaOnBwMA0CENidAAWdnZAz+ewEeqBh0NRAwcZVCEAAAiclwFx10sAd2Gw0deDgYBoEILA7AQo6OyFn8tkJ9EDDoKmBgo2rEIAABE5KgLnqpIE7sNlo6sDBwTQIQGB3AhR0dkLO5LMT6IGGQVMDBRtXIQABCJyUAHPVSQN3YLPR1IGDg2kQgMDuBCjo7IScyWcn0AMNg6YGCjauQgACEDgpAeaqkwbuwGajqQMHB9MgAIHdCVDQ2Qk5k89OoAcaBk0NFGxchQAEIHBSAsxVJw3cgc1GUwcODqZBAAK7E6CgsxNyJp+dQA80DJoaKNi4CgEIQOCkBJirThq4A5uNpg4cHEyDAAR2J0BBZyfkTD47gR5oGDQ1ULBxFQIQgMBJCTBXnTRwBzYbTR04OJgGAQjsToCCzk7ImXx2Aj3QMGhqoGDjKgQgAIGTEmCuOmngDmw2mjpwcDANAhDYnQAFnZ2QM/nsBHqgYdDUQMHGVQhAAAInJcBcddLAHdjszTX19jpdLi/T5y8HhmBMe3u9TJfXN7N134+PtsGP//J5krDtas+Xz9PLIzRjxz2hdpNKrS9pB2+WCFDQWSK00v7NJ5+V7KSb8xBAU+eJFZZCAAJPQsAvOF+nKm3y2y/T5aL/NY57Egy3uHHTXOWSkQcnpbf4xrGPIdCtqXsTxBMmxbsWL2bC/mgbKOhM03RC7SY53Xu+pg7GfUNBZ6fYd08+O9nDMOcngKbOH0M8gAAETkLAL5KlWNMo1MwVek7i3pZm9sxVXz6/TJfL6/T25fP0+vnLZBOzLe2j7/MR6NGU96pKEL9Mn18u08uZbr3pDM9yMWV735dt6HRmpcM2s8fPB2YeqLS2khNL3Txq3CW77tn/TL7c4/872lDQeQe8W5p2Tz63dMqxQxNAU0OHH+chAIHdCLxNr5fL5G8caS3knR1z23ez8bgD9c9VgbO7y4mbdI4bzyNY1q2pKkHcvqjxKD7LxYvtfV+2YV86m9nTut5XWtvJ10eNu4V7z+TLFnyu9ElB5wqcNXd1Tz5rDkpfT00ATT11eHEOAhA4IoHWQt7Z6barZzcc0fRH2dQ9V7nF/Mvn6e3zy1PeQfEo/s847k2akuea+GRR7rILr7N36lTneSiG5J9Uzj9fx99tZiuSjUTVFxvUTzSLJtbWYqeLaC5+epte38JdbdVxMfq2v0t5l1K4Q06xmeunEFOfDbbvsuslrmaMIpYv0+c399waZ3e4W8YWcNJnH0/xrxE7y6c0svTaPatIxU3GnlKMS5trjZX7e+aNZa0onyrtuumptNm6t7Q/Aej20ca1XaQvtSHxVL74gW/nlewd6A0FnZ2C3T357GQPw5yfAJo6fwzxAAIQOBmBxmLZeVAuTHOCcTLvNjG3b65yCYAs5PX7TUyi05MT6NOUPzHNg2pDolkn2QaIOc9TYSAe9uXz6+wDk/21wGbMKREOHfhjdAH47TXflWaOnaaYHKc+Q4KrfUjXn3SM8cd/bPseknn986E4nrav6q7PhspP71tO7q9yjceWfkbucZ8thtj+gm/lw6IDK7nWzGvk6rO8jD4C3rK45Lf549RYsRCnw+RtvMY6/gw1hcD2afVibVtoX8VIazENGt8I91hAu+Zjwa8Zy/gz2zSGFG7eySv1N9YbCjo7xbt78tnJHoY5P4HHaKq9INiPpl3YPNqe7LldSOQ9vEsE/ELDJbt6wk5745sYY/cNmFv12MWJPfyon43de+hjcWF4VFZnssvEdc50Hwu96J07cIDtj5mrBgA7sIvdmrLJbiyO6CJBE2Nxnt+2zvAJss7Y3QDGjmvzgdtX2afsqRLw6MC1PsMhDT+MXYnF3PZ4QJ8NLkGv5/psZ8OeZEC8q8RylP3evlwYks2577DFf66KJeW47phrvKXv4lXFI21v2lSO1aON1N/sm1D4SGhsrFq2FX2V7S2z4lD7odfHinn80iNtL21Iwxhf1uGVen/qNzcUdAL8fJtZfZI+Nal3Otc9+bxzHJqPQ6BbU+YC+T5C5eT0vr7uaR3Gz5X/R9uTfbhpUszNxnnXqcOK4+Li5KAIjd2VXxuY7cdIC6YNBqDLGwqMx7k2PTps3XPVow1l/NMQ6NZUNe90npfm+h2+WOi7864rCfV2tb7ciGuc4ic97rg8trvOVwUI/6vP8k6UOpgN352fzTkjHJuKBqazLhuSj2K/epWOPefsWx7m+vi2QCbt7DxrP9fHLfOWNsWr1YfbWWnNbywewu3tacZ2IadusBSE1biztin++jllqe8FG27wsaXPYGe8E8yPqe8Ki3QNw7t5xe5Geukv6Hz5PH1Wf6fTX7AaldeR4N3ia/fkc0unHDs0gW5NmQuk3L7bvOAuEm0sCBbbbHnAY+zx1z+zCJpbOGzpfX/fM9+G9Hfw/iNbi4yq10Y8u9pVHT1+g7F7bX20NPh4pwewwMR13uOGlucPfuo93XPVU1PAuTUJdGvq3vXPzHkecp9WASJ7549J2XbcXtkRt/txXH+STIfrhm2eew93rrTWb8tzTOOa5MY3a5kw1nU73FiLNnifG0m7dia+r7leH78qYsR+LAP7WYbO2xfGkQb2taWPZoxL5nPcbPf6s7c16cPtMes5O66xbbG9DFZpUXaoVzuW39Xpo9aDfq+6t3G9h5fubqT3/QWdiooRVLWfDZpA9+SjG/EeAlcIdGuqugCXF98rQzR2vadto7t3b3qMPa1k2k+a11Zh7/b1PR0c4HptFhltbxrx7GrX7u2hW43da+ujpcGH+jvK4Cau824f4JybN27XPd1z1a5WMdiZCXRr6t71z9Xz/Pq53bw2+/6kaGPJl/Pe0lzh91dFmNBHvnvZjuE+l+P4Iyo+sd3c9ri7z4brnGJX6qU8/iqHGftsG/s5DHbDOMq64m1LH02bSuZNbRQd2w+lrWGv2WbHLWwzx/oOWttk3NJe2Zpe7Vh+R9lmzsdiu++n/slcuBMunydFm2QEb1oEKOi0qGywrXvy2WBsunxOAt2a0hfgeBHNP51sf8uSiJnjXz6/FbePynF+0ky3keaLsd9v+qi+DfKTj7oVVBYqMinJfr+9nDj0AsVf+JMNjW+FrB2m+FL60JhogjPef81P/JGFw3vtEKb6tezT2CacjH/JPeGX2Eh7YRli6nx6/f9e01+LqMaXuOgd6X3oS3NJ48ut4Gp8YZaauzfGfm+PuytU/NMHW5+0bb4fo0F/fLnNM9VG6v79++s+2ZhUC2ljt+hDD2P7qM0JC6/M1flQ2yU8W2PknwrEc0yzcsaInYZ/bYu2fOD3wssgeHstrznhelJuM02G+dg9Vw1DBEffS6BbU435oHmdtAYV5/mX6fPr5+lLOuZaQpznsnwNlet4noPK64XMxXEEP7bM03FQ/WDbeK3Wd8ikuSQPmqzVb1q+19eqOMdc66vThrpvN9XLA6UXuDbH0A9FzjzFR+tfGL9c51Y2LfGWzvVrQ1f27pJwuIltwyd/x80sa9NeradSE2uL1e5Ly/+sr6ta1D6793Ysv9/aGPWeDJR2eUzXrIpD+sttKq5LvOJ+PZQ1eZTPdxd0fCDswnAUanf42T353NE3TcYk0K2p6gJsL74z/BoXytnJUV9N/WQiF2S78Ckn8LAIkWOdHWp/nGTLRNnaHj67hFcvbqqJYoaB9O3t0Neza0/593PTS3Wbcs0m2qbZLNjRikRlm42LcFL2B646mbRxiKxf9K3ebtv8cZpvaef85F20KRYZZQ/5k42vKjjEg2rN2IVB3cdcbAr7shGJg+jD71KaqPQlf4VExSAVSmK/vo3SwmJcY5y1jXkh7NZVMxq0YxS3altWwvdS6LnWTwFn7A8zOhaNpeKb1sLYxKbuuWpwTrjfT6BbU9Wcm5NLu24oRi/O87zOkPNbXWaLZvIhXEPli6rX6c3YYa8X+jrv+5B5PX0Roufz0gfxw84xYkvxGucVaSP7Fu2RA/Wr6kv6a9lg+87zagdXM4Z8edEuLMT5TQVH7CltMCydT0u8td/xfe4z9mdiHA6r1yP1l1d6DdwYyDB4fTPrNDtuod1aK7Z99iPotdKiNsmO5fc1fEzFGTkH2j6WY9fnSehe/npYo6/IRoVcWzvU+5sKOvoCdTXgQyHsc7Z78unrjqMg0L9Iri7ArYtvDdRfaKurpGnr+7aTozqmGluPYyYlvcu995OSnQRU3/748DkvEKSTsm/nS3XNUpNe21fpq36dTaZtEqfGcL0s2VGP5PywDMyipcmp9P9aocay877puDdjnC1tsXB7q+2GRe5Bv7PxFR2Ixqxf0rbcXvoQGL6+voS/muWbhG2f81eu0pF/rWzXe+c0bbcbf0uNtcfXx+j3enh537KxbFMykXaVFrr0k1vzDgK3EmD9cysxjl8igKaWCLEfAhAYicBNBR0Nxi8m9VOy9U7eVwSYfCokbHgngW5N2USz9TvqypaQWOu8PhxiEm6fDErVvHyVAopPMt23TLazhUKBvcOhOf6sL9rO8F6+WStf9Tcrzv66eFKhaRUrYrGm8rFI6jvssIN5RiXXZL/wLMaQDmwybz+74zQjaSff5kgBJRZmZCx1mLx18ZVYyzb/auPbtLNo0bZJt7N9quaFHbaNK7Tptm6/Lb7N9aW2+7ezbQPPhErbYPWxGFfTl7WhR4PaX9N+llU6rqWXtJM3ELiJQPdcdVOvHDwyATQ1cvTxHQIQsATuLui4jnyillavtms+awJMPpoG79cg0K0pn9jpQsVMIl8YNZdQmrazyW3RWUrUfTFCrhlXEk7f2iTEoUcz/lxRotg+54u1Ue4GWS7sLN8dEfsufLjBDjFtiZE7rhhDGtqE3H52x1mW0lbb6d5r7cgx+bUoDuTN8bfWuTDUtlM3cO8bNmn/rvAo7cj+uliFglP2qzzW2jBzJ5Uc5uxpFoNy//5QbbedL6/4EYYxfcnY6nVRg1fGKPw3doYhMj81JG8hcBeB7rnqrt5pNCIBNDVi1PEZAhCYI0BBZ47MytuZfFYGSncb/+QqJJTVHSfxd7HpjgyfNF5P+ItQFcnjQtJYHCu9BLvS+K0CgDvU2OUS2NoX6dO+2jHs/sbPiWzCLk2MD7fZ4TpZYOQPaT3I2Lazn13DK346u13hzXFsFi/EwTYL37t9xothkXvQ7xo2Fe1afrj29fZQtHAPfM76DMWdcpseXd63iiWyz2prdntht/0CpLY39RPfLGmlZWPZZm4Ms93YGYY3x1jj+AyBGwiw/rkBFod2EUBTXZg4CAIQGIRAd0GnfAq2z14m9227fNk+CK+73eybfNwiOicfdw9GwyEI9GmqLm44OGXiN4PLJ3rlOe7bFQ8gDgm4vWMhXS/0X2YIAxd/RcknpYXm7UOR1R0e3kyb8Mfxi2tRw6aGLy4xf40PUUn2Nsdo8GkkwU2m9rgFOxojNf4SgCuiyF+JkGux5WQTcsvNjdTaJha49q/T53R3i2xvvYaxioKZL6iV2lnlDh0v55fqp3GevS08RdaFNmXbxfKyfjV86nkosp4QTeytPsK5VNpRxDUyzMXL5bjbMerzK577mpWxM5Ao9RP6KW21xPgMgTkC3XPVXAdsh4AhgKYMED5CAAJDE+gu6IQFnX6WA4WHW5TTNfm4hbVeaN8yAMcOR6BLU46KuVvFg4rJoivK6oSxgpgS4HDuv761igCxgJL+GoPqU40Tnv1SJ4X22pLsaSaadnz5nP/0th+ndR4ZXy4qqQ/Jdb6+JRsqILJB+RzHssm0P7LlwxU7pHf7au0riietMRp3rISCisTRjSDs2k8GDmPW8bK2hc+xAJI00Jgfmnba3ho2NdpZzRQ8UpfBpjKWjUJNOt6+sT6VLGxMynHqQltLH7aPyg97/hS67tPgIqsGX3vHU+ij9N/S4jME5gh0z1VzHbAdAoYAmjJA+AgBCAxNoLugMzSlFZzvmXzcorlKClYYmy6ek0CPpp7Tc7zag0CrALHHuIwBAQg8FwHmqueK5xG8QVNHiAI2QAACRyFAQWenSPRMPm+vjW+1d7KPYc5HoEdT5/MKi49BINydon9BdAy7sAICEDgbAeaqs0Xs+PaiqePHCAshAIH9CFDQ2Yk1k89OoAcaBk0NFOydXfU/sSl+3rOzAQwHAQg8DQHmqqcJ5WEcQVOHCQWGQAACByBAQWenIDD57AR6oGHQ1EDB3svV9MwWnpeyF3LGgcCzE2CuevYI7+8fmtqfOSNCAALHJUBBZ6fYMPnsBHqgYdDUQMHGVQhAAAInJcBcddLAHdhsNHXg4GAaBCCwOwEKOjshZ/LZCfRAw6CpgYKNqxCAAAROSoC56qSBO7DZaOrAwcE0CEBgdwIUdHZCzuSzE+iBhkFTAwUbVyEAAQiclABz1UkDd2Cz0dSBg4NpEIDA7gQo6OyEnMlnJ9ADDYOmBgo2rkIAAhA4KQHmqpMG7sBmo6kDBwfTIACB3QlQ0NkJOZPPTqAHGgZNDRRsXIUABCBwUgLMVScN3IHNRlMHDg6mQQACuxOgoLMTciafnUAPNAyaGijYuAoBCGxGwF1L+QcDNIAG0AAaQANo4JEauHehQ0HnXnI3tnPi4D8IrEkATa1Jk74gAAEIQAACEIAABCAAAQiciwAFnZ3iRfK9E+iBhkFTAwUbVyEAAQhAAAIQgAAEIAABCBgCFHQMkK0+knxvRXbcftHUuLHHcwhAAAIQgAAEIAABCEAAAhR0dtIAyfdOoAcaBk0NFGxchQAEIAABCEAAAhCAAAQgYAhQ0DFAtvpI8r0V2XH7RVPjxh7PIQABCEAAAhCAAAQgAAEI+IKOSwz5BwM0gAbQABpAA2hgNA2wFIQABCAAAQhAAAJnJeALOn/8+WXi37YM3AIZxtsyHo0vmkJPo2kef9H8Fho46wIOuyEAAQhAAAIQgAAFnZ2KWSTfJCJrJyJoCk2trSn6Q1MjaoClIAQgAAEIQAACEDgrAQo6FHS4c2gnDaydKFHQIfleW1P0h6ZG1MBZF3DYDQEIQAACEIAABCjo7JTMk3yTKK2dKKEpNLW2pugPTY2oAZaCEIAABCAAAQhA4KwEKOhQ0OEOnZ00sHaiREGH5HttTdEfmhpRA2ddwGE3BCAAAQhAAAIQoKCzUzJP8k2itHaihKbQ1Nqaoj80NaIGWApCAAIQgAAEIACBsxKgoENBhzt0dtLA2okSBR2S77U1RX9oakQNnHUBh90QgAAEIAABCECAgs5OyTzJN4nS2okSmkJTa2uK/tDUiBpgKQgBCEAAAhCAAATOSoCCDgUd7tDZSQNrJ0oUdEi+19YU/aGpETVw1gUcdkMAAhCAAAQgAAEKOjsl8yTfJEprJ0poCk2trSn6Q1MjaoClIAQgAAEIQAACEDgrAQo6FHS4Q2cnDaydKFHQIfleW1P0h6ZG1MBZF3DYDQEIQAACEIAABCjo7JTMk3yTKK2dKKEpNLW2pugPTY2oAZaCEIAABCAAAQhA4KwEKOhQ0OEOnZ00sHaiREGH5HttTdEfmhpRA2ddwGE3BCAAAQhAAAIQoKCzUzJP8k2itHaihKbQ1Nqaoj80NaIGWApCAAIQgAAEIACBsxKgoENBhzt0dtLA2okSBR2S77U1RX9oakQNnHUBh90QgAAEIAABCECAgs5OyTzJN4nS2okSmkJTa2uK/tDUiBpgKQgBCEAAAhCAAATOSoCCDgUd7tDZSQNrJ0qbF3R++TBdLt9MP/x+niT350+X6fLpp4dq+tE2+PG/+376Lep6V3t+/3769mSaWeu8tNzX6rfu59fph+8u07c//vpQndd2nec6YW0/6wIOuyEAAQhAAAIQgMDdBR2/eL18mH4+aTJsF3Rbf+5NvgPXy3S5hH8ffznvInlrpqP336upP+5Nsino3JUw71pAaVx/bWFhV3vu1VrDj7Od35b7dvZT0FmbLUtBCEAAAhCAAAQgcFYC9xV0/KLdFRwo6PQuLLuS79+/nz7qb11PmFD38uC49xfqujTlEuUqyX7ehHC5eLG978s2vD/2t5w/m9njr09mDqi0tq+vt3A577Hba/i8bO7T21kXcNgNAQhAAAIQgAAE7ijohMXkx0/u5xhmMf8E37JutZDtTr4Lhj9NHwf9+cJWcXimfrs1VSXZz5sQLhcvtvd92Yb7ks57tbuZPRR07rqD69445nbbaziPta9WHzUuS0EIQAACEIAABCBwVgI3F3R++/Gb8IyK1mK+KEaMsRDsXYB2J9+K4WaJmBqj136OO56euzWlCzr+ff5Jn/tp3+yzOKpzPCSS8nPAa8/XSdcJrTVtR9zuNR5/Xuj6LX5iaG2tno3jCp7Kl08/TVfPGduf8d3bbPpb1n2fDbbvws8/l7iaMaTIKzx/cc+tyXdMWgbps4+n8Go8G8nyqXjnc8DGLRX3xabfS5trjZX7L+qZP03mokXtQ2xTsG30Y20t2Eu/f5b2lPbmAkoxlvlCI3HW2v7003StjfO13P/N9IOPZyM+6VzK9ggr8VH7JtvC+ar6Sz7neCY7GvxkjGd+PesCDrshAAEIQAACEIDAbQUdvRDU79NCs1wgPvMC8FbfupNvz7JesN86Hsc/vxa7NZWSbGHSqS9zjtuE9bcfP8w+MNknqbYgYOzwx+gE8pcPuaBjjv1Dih6pz5CA68Q7JcbpGPFXv7Z9D8mvvuMwHHe90NBnQ+Wn9y0Xr65yjceWfkbucZ+10fYXfCsfFh1YqSR/kbdmGN8bffhrjtikix3+ODVWLJ5UxQetBTun+D60D6oAk+Jdx8P93PDqz1ilX21vxTxqwRQArWbmuOfYxX6SvVLM0boTvzQvy77UcIil7uNLXdgsYhDG0Pzl/Mq22jGf+zNLQQhAAAIQgAAEIHBWAv0FHbvg9wvEchFJEWF+0dudfMs3tmrRD9d5riOz6daUPXdjcWQxeSvO8TKJXOLuk0yrYWOHTYB1n25fZZ+ypyqSxALAtT5D/w0/jF3Jjrntcaw+G1zyXCfn2c6GPaqYkY9rnAPevlwYErttG/+5KpaU47pjrvGWvotXFY+0vWlTOVaPNlJ/wqIxlu9HF2Lk2ln5qtmZYobvt45PGdtgf/3X08q+urgXfpTtk88LutPFl8DA2O/b27l5IQbNNprbc78/6wIOuyEAAQhAAAIQgEBnQaex8CwWps+92EsLbUku7njtTr7/DN+uVsnVHWOuYTd9HFfb3ZqqEsQyuZuNsT3H/ef8057ZdpJYLxR0wsOaXX8mIZW7cfTPn9L7kKg2CxDx3KkTbx3Dhu/Or2YRIBxb3smQ++qywbOXnzmZV+Ezy/X6+PXDroNtzcKCjKWuI/m4ME7+KZ220xYGsv9/WH24viutueNL5n7cFE89ltXB9bHKoks4trUt6yyPlWLa8sH5UWwv7c+6L7dnnsEW+9m30/3OFVGaDBUL4fndN41zR2zPvuq4pnnFjO25NTSSfdXjP997loIQgAAEIAABCEDgrAS6CjrhW8D2AtEtFtMiUSULoywEe/3sTr4jw99+//VBD9x8vsV6b4zOdly3pqoEsUxEZ/3Wyac6t/P1YD7ZbyaIlR1Ra34cd32RhD7Yl5JuNbbY6pLl1nWnmUQX7Ru+u/E3LejMcxJ/3GvNdYHDDE/LwH6WMfP2hXEKfur60NJH06aSuRu3FTuxq/naGMvzMnGz27yPSVfOdvPlRKNfP36xvbQ/21duzzwDI/u56tezamijyVBxl4Lnd9/4ZydV54mz3XDJNks/OubuvZx7sn+s17Mu4LAbAhCAAAQgAAEIdBV06sWgfAvYWIzOLf4H396dfA/Oqak1mDSLe92aqhLEMhGdZV4ktTbBM4mxiZFNrP0Yvr+5xLG0qZkMqzH8/ippDX3cfIdOxSf6Orc92tFnw3VONfvy+KscZuyzbeznMOYN4yjuhb0tfTRtKmPb1MbcGLK9MVarn3Jb6WPL7/JOnKzxkllpf2JgfC3bNJ5j43zRfvj29U/mwjFz54mzUdnj+zN9GLuSvcJSXl1bd1eOO746lzKL2fbSzxO8shSEAAQgAAEIQAACZyVAQWenxWh38p2+qadYNkIi8R4fuzXVSPBs8tm0QyefLon89P30WzpfWsmySgKrZDUcn+/CcQmv1rhKUt0YM4lqesBt7F/f6eGTefdTnoWfjrR899uK57EEe6721WlD3be7G0ceKL3AtTmGfihynfhb/8L45V0xlU1LvFPcbYzN+N5es00XIFw/DZ/8nTPX4lZoMdhQFm9a24ym5Cd5+q+pRb+LO1oqFlELul26SyafE03u1ifjRxWH9Ne2LEPF3fKcs9cUacrzzfXnzskP0w8/fmPumArnqj63mteHliZOuu2sCzjshgAEIAABCEAAAhR0dlqAdiffFHSad6M8e0Jxj3/dmmol2TGpvvqTySL5zEmtPJOj+qmHOZdSgcU/L+XD9LOxQwoN0l+VQMZEVfanP40t4ygfxA+bVDe5qnZ6zEV7ZFz9qvq6ZoPtOxeKOriaMVLxwW+vE3/LQD6XNuhiWiwWLPHWfsf3uc/YX9OmurAiRZ0c29qPInaFFlvFm5ltht3HX0whUvo1vpfaFvt/mn74Tv30uCqYlMVGBR19AAAgAElEQVRE4b7kR2bo+q7Pk6K95y725J/lpnMtFZBqXWmtS59hbKsFCjosDSEAAQhAAAIQgMBZCNxf0Gks7mWRyGtMkBSj7uRbtYFjzREmmQmayizQBSzu0oAUdK5ed+sCyl1jXR1Dxa9ZFFP7e/vpOK5ZdOpot6n/Dxj/LAs27IQABCAAAQhAAAKWAAWdnRaPJN/bJCTPlljc4g+aQlO36IVjG3o5YEGn9VOybWJn7lbaaS7cxpdGbG/wxy6M+AwBCEAAAhCAAATOQoCCzg2LvvcsREm+37fgfg/7Z22LptDUs2p7N78eXND5+ZP5qVn86Vf5k69tdL5f4Wgb+9fUyFkWbNgJAQhAAAIQgAAELAEKOhR0eGbNThpYMwFxfVHQOX6iuHbM6W/lmD+4oJOefeOfMxWez7N5MSc9V8g+O2dltie6rtqFEZ8hAAEIQAACEIDAWQhQ0Nlp0UnyPW6ysFUSjqbQ1Fbaol+0NZIGzrJgw04IQAACEIAABCBgCVDQoaDDHTo7aWDtBImCDkn32pqiPzQ1ogbswojPEIAABCAAAQhA4CwEKOjslMyTfJMorZ0ooSk0tbam6A9NjaiBsyzYsBMCEIAABCAAAQhYAhR0KOhwh85OGlg7UaKgQ/K9tqboD02NqAG7MOIzBCAAAQhAAAIQOAsBCjo7JfMk3yRKaydKaApNra0p+kNTI2rgLAs27IQABCAAAQhAAAKWAAUdCjrcobOTBtZOlCjokHyvrSn6Q1MjasAujPgMAQhAAAIQgAAEzkKAgs5OyTzJN4nS2okSmkJTa2uK/tDUiBo4y4INOyEAAQhAAAIQgIAlQEGHgg536OykgbUTJQo6JN9ra4r+0NSIGrALIz5DAAIQgAAEIACBsxCgoLNTMk/yTaK0dqKEptDU2pqiPzQ1ogbOsmDDTghAAAIQgAAEIGAJUNChoMMdOjtpYO1EiYIOyffamqI/NDWiBuzCiM8QgAAEIAABCEDgLAQo6OyUzJN8kyitnSihKTS1tqboD02NqIGzLNiwEwIQgAAEIAABCFgCvqDjEkP+wQANoAE0gAbQABoYTQN2YcRnCEAAAhCAAAQgcBYCvqBzFmPPbKdbIPMfBNYkgKbWpElfEIAABCAAAQhAAAIQgAAEzkWAgs5O8SL53gn0QMOgqYGCjasQgAAEIAABCEAAAhCAAAQMAQo6BshWH0m+tyI7br9oatzY4zkEIAABCEAAAhCAAAQgAAEKOjtpgOR7J9ADDYOmBgo2rkIAAhCAAAQgAAEIQAACEDAEKOgYIFt9JPneiuy4/aKpcWOP5xCAAAQgAAEIQAACEIAABCjo7KQBku+dQA80DJoaKNi4CgEIQAACEIAABCAAAQhAwBCgoGOAbPWR5HsrsuP2i6bGjT2eQwACEIAABCAAAQhAAAIQoKCzkwZIvncCPdAwaGqgYOMqBCAAAQhAAAIQgAAEIAABQ4CCjgGy1UeS763Ijtsvmho39ngOAQhAAAIQgAAEIAABCECAgs5OGiD53gn0QMOgqYGCjasQgAAEIAABCEAAAhCAAAQMAQo6BshWH0m+tyI7br9oatzY4zkEIAABCEAAAhCAAAQgAAEKOjtpgOR7J9ADDYOmBgo2rkIAAhCAAAQgAAEIQAACEDAEKOgYIFt9JPneiuy4/aKpcWOP5xCAAAQgAAEIQAACEIAABCjo7KQBku+dQA80DJoaKNi4CgEIQAACEIAABCAAAQhAwBCgoGOAbPWR5HsrsuP2i6bGjT2eQwACEIAABCAAAQhAAAIQoKCzkwZIvncCPdAwaGqgYOMqBCAAAQhAAAIQgAAEIAABQ4CCjgGy1UeS763IjtvvYzT1Zfr8cplePn95EPgw/uX1LY7/aHsyhrfXy5Ttytuf9t3b63S5XKbL5WV6mBxugfvl8/RyFltv8YtjIQABCEAAAhCAAASGJXBDQScmUn4B7xbx4V/Kq4ZF2Od4b/L95fPLWElhHz6OahDo1dS0aiL76AIKBZ2GFPbftKqmdjL/jDbvhIZhIAABCEAAAhCAAATOSeDmgg4FnPsC3Zt8U9C5j++IrXo1VRd03lOUeU/bLaL0GHv8efryedL3KW12h46/E+Z1knuStqB4c59HtGnJCQo6S4TYDwEIQAACEIAABCBwMgI3FHTeptfLZaKgc1+Ee5NvCjr38R2xVa+mKOisrw4KOu7nVgcrMi2FmYLOEiH2QwACEIAABCAAAQicjMCNBZ2TPCvhgEHoTb4p6BwweAc1qVdTRUHHJ7X5J5Pup5NXn4djjn/5/NZ8ho6/OyX9HNNcJ0wfF3Nny5SexRLtkv1yF4js99vtHTn5sz93kg2NYoO1w1SnSx/mitdhPPnJqX+N9sodOu+1Q8vN2qSLKHafcWeaplCET7a+vk1iox6jfm/amefO2HGreKYObT+NmKRjpynrtGxX67OOQe276+4l/TTYP+fnrfUMnXKseV+0obyHAAQgAAEIQAACEIDAMQj0F3RsMsTdOjdFsDf5pqBzE9ahD+7VVE6UBVcugsiW5ms853WyLMm8TrKrIoEvwEhRJyTMuY8v0+fX/FOlkHTLsc4KtV8KOblx2F88lDkn95VN+g4S74sZ5yU/xNjbIYUkZ8bb69W7EavjfZNQkMp2RNu0/Qt2NOMghS2988vn6VU/ibhg7h3wd1RmW1SBQ9uj+3TvY8x1Oym4Fc1aNpm+vnx+LR6W7HWiGZvjZWxdtApj67jFAow2pmFz0JUuIEnhpu5Ld7Voo7WZzxCAAAQgAAEIQAACEHgggf6CjjUyJlt6MWwP4XMm0Jt8+0QEqBkc72YJ9Grq3oJOVajxlphikE+mdeLsDlLHVAUM7Y4t9uh9oahS/wUl1beyp/7rUmXfzpeiSOHaqqJE21djj/o4W9CxBQs1Rhjyuh1qiPzW9JF36Helvy373NFLfs7tr7Z32aTtK3mbPeFjLMyUl78y3nN+ldtLFmkso0XfphxM3SWUWvEGAhCAAAQgAAEIQAAChyVwf0HHf5n7MnGLel9su5NvlyjZJKNvCI4ajEC3pkwiWxRcZpmFRLqWYplgy90b6Wc96SdPuXDhiwFuu+3M22WLQcqgZtHAjK+LR6pp6WNo07Ix3Q0Siwl1AanoNH0oCwhhc1X0cJsLHzrsSCOoN0UfanuyOf+EThA7W6oC1mJBJ9gnfaiRgh+6WDVnU9FI3RWUdHEl3pVOXWdlvOf8CkXL2Pecrkz/SZfJNuGo7+IxDvERAhCAAAQgAAEIQAACByJAQWenYHQn3zvZwzDnJ9CtKZPI2iS5TWIuuS8TbF+w0Il+u7OUmPuiilQM5hJv6aNZNDDjm4RfmpY+zvmSj07v/Jgusb+e1L+noCPupzGX3jQ4hGKEtrG8K2Wu8OHbzRpwhZOzQce5YVPpRrDnpjaVTl2PZbzn/Lq3oNMqepV+8AkCEIAABCAAAQhAAALHJfCugs715OC4Tj/Csu7k+xHGMeYpCXRrqkqUyyS57Xw4prqrJj5oNyXCVd/t3tLWohBQFiHSMfKmOFY2Wtvt53icseu2a9VMn2LCzN2JzTGMD81jVL/Nt6YPedhxWZcpWfpxdAHGdzwX0zzqnH3V9sqm3Id/19rf2qabmZiFXWUsWoU0d1yx3ffTeKi1Hz8XwYo22g7eQwACEIAABCAAAQhA4CQE+gs69iGhfnHcWDSfxPG9zexNvtuJ2N7WMt4ZCPRqqn6GzvKzVLz/jXPc67P4y1ixSGCKB2+v+ecv9cN7889ufFJd3A1jH4qcjw0xKRN8uYPD3fmTCxwNmxq+OC5iW7LXD2LHaKjB91faVhU9XDN73IIdjZEaz3Wp7ZO4JAaxqJEKb1L0aP30TQ/aaBd8yIUQf7j1S/fh3lfFmXjHjn5Q9WIb35H5q2qxn+SojKXjH/VdjCXjKz9avrqCpfQd98tHay6fIQABCEAAAhCAAAQg8GgCNxV0ymdQqIXxo704wfi9yTcFnRME8yAm9mqqTq5zEuzOaZ30V67FAoSc+69vdTFBF1XkuNRnTIple3pmjRooFHXk+SXKnmbRwI4vn8OfU0/jmAKTH874om2Rgoi0T/YrO8u3YVx/fByrq6DjOrliRzlG/pTty4WyF/Xsl9e38g4d39Kwdz41bczDhHemneaUDm3GJu31b8q4vk5vS238uHZekfh+UZ1LcUY0Y9uEQzMzd9zr9Nbqv/JV9RX3UdBR6HkLAQhAAAIQgAAEIHAoAv0FnUOZfT5jupPv87mGxQ8igKYeBP7Ew3YVdE7sH6ZDAAIQgAAEIAABCEBgJAIUdHaKNsn3TqAHGgZNDRTsVVxt3MWzSr90AgEIQAACEIAABCAAAQg8ggAFnZ2ok3zvBHqgYdDUQMG+1VX3c6Hit0LxJ2Ktn6Ld2jfHQwACEIAABCAAAQhAAAKHIEBBZ6cwkHzvBHqgYdDUQMG+2VX7nJlL+WfHb+6PBhCAAAQgAAEIQAACEIDA0QhQ0NkpIiTfO4EeaBg0NVCwcRUCEIAABCAAAQhAAAIQgIAhQEHHANnqI8n3VmTH7RdNjRt7PIcABCAAAQhAAAIQgAAEIEBBZycNkHzvBHqgYdDUQMHGVQhAAAIQgAAEIAABCEAAAoYABR0DZKuPJN9bkR23XzQ1buzxHAIQgAAEIAABCEAAAhCAAAWdnTRA8r0T6IGGQVMDBRtXIQABCEAAAhCAAAQgAAEIGAIUdAyQrT6SfG9Fdtx+0dS4scdzCEAAAhCAAAQgAAEIQAACFHR20gDJ906gBxoGTQ0UbFyFAAQgAAEIQAACEIAABCBgCFDQMUC2+kjyvRXZcftFU+PGHs8hAAEIQAACEIAABCAAAQhQ0NlJAyTfO4EeaBg0NVCwcRUCEIAABCAAAQhAAAIQgIAhQEHHANnqI8n3VmTH7RdNjRt7PIcABCAAAQhAAAIQgAAEIEBBZycNkHzvBHqgYdDUQMHGVQhAAAIQgAAEIAABCEAAAoaAL+i4xJB/MEADaAANoAE0gAZG04BZF/ERAhCAAAQgAAEInIaAL+j88eeXiX/bMnALZBhvy3g0vmgKPY2mefxF81to4DQrNgyFAAQgAAEIQAAChgAFnZ2KWSTfJCJrJyJoCk2trSn6Q1MjasCsi/gIAQhAAAIQgAAETkOAgg4FHe4c2kkDaydKFHRIvtfWFP2hqRE1cJoVG4ZCAAIQgAAEIAABQ4CCzk7JPMk3idLaiRKaQlNra4r+0NSIGjDrIj5CAAIQgAAEIACB0xCgoENBhzt0dtLA2okSBR2S77U1RX9oakQNnGbFhqEQgAAEIAABCEDAEKCgs1MyT/JNorR2ooSm0NTamqI/NDWiBsy6iI8QgAAEIAABCEDgNAQo6FDQ4Q6dnTSwdqJEQYfke21N0R+aGlEDp1mxYSgEIAABCEAAAhAwBCjo7JTMk3yTKK2dKKEpNLW2pugPTY2oAbMu4iMEIAABCEAAAhA4DQEKOhR0uENnJw2snShR0CH5XltT9IemRtTAaVZsGAoBCEAAAhCAAAQMAQo6OyXzJN8kSmsnSmgKTa2tKfpDUyNqwKyL+AgBCEAAAhCAAAROQ4CCDgUd7tDZSQNrJ0oUdEi+19YU/aGpETVwmhUbhkIAAhCAAAQgAAFDgILOTsk8yTeJ0tqJEppCU2triv7Q1IgaMOsiPkIAAhCAAAQgAIHTEKCgQ0GHO3R20sDaiRIFHZLvtTVFf2hqRA2cZsWGoRCAAAQgAAEIQMAQoKCzUzJP8k2itHaihKbQ1Nqaoj80NaIGzLqIjxCAAAQgAAEIQOA0BCjoUNDhDp2dNLB2okRBh+R7bU3RH5oaUQOnWbFhKAQgAAEIQAACEDAEKOjslMyTfJMorZ0ooSk0tbam6A9NjagBsy7iIwQgAAEIQAACEDgNAQo6FHS4Q2cnDaydKD2moPPr9MN3l+nbH399kG7C+JdPP8XxH21PLgD8/OkyZbvy9rXjvnp/v38/fXv5Zvrh9xPZfNJz9t7YeW1dLtPlu++n387g+y8fpsvlw/TzGWz988tpFmwYCgEIQAACEIAABCyB2ws6fvF/mS5ucen+pcSKZODaYv225Pun6aPwPdMi/iSL92txOtO+bk2tmrA/uoBCQWd1ja6qD+aBtePz24/fnKeQI3MABR271uIzBCAAAQhAAAIQ2ITAbQUdv0jjm9x7FuzdyfefX6bym/5HJ9AkaPfEe4823ZqqEvb3aOo9bbfQ0mPsaSXZ5Xm7ha8b9VnpY6NxJNk//eu+mjulrijobLJgo1MIQAACEIAABCBgCdxQ0HF3jVDMuTdR706+/wzJwsdfclLlk0fuhHrQT3xyHO6N/VbtujVVJezvSUjf03YLlo+xh4LOFrE8S5/7ao6Czva6sAsjPkMAAhCAAAQgAIGzEOgu6LQSmK0S1Wfstzv5ru7QCT+/ygUeCmvPqI97fOrWlC7o+PfqJ5OXhefhmOO//fGn5jN0fNKZfiZoCr+mj+o5IP7bfGWTPCdEvuWX/X67TabzZ3+NSjY0nt9h7TBF0tKHy5TPOZ1QhvHST07VTyIl8X6vHbUWzE8wzbNJuscVjsJIOHsuLmblOPVzkmrfLSOxRVjWfTiWnTFrxj/EomTc+OmvtP1zyadyv9Vm5c///T/Tt8Ivvjof5bgydtnPcrvS01xM/F1MxrZr56rVtsR27m4o4WPa2XhKrLTe62PiXaWJy4fpZ+lfj2/GOtLPtc+yYMNOCEAAAhCAAAQgYAl0F3TcgjUtXPXCTS/YeD97F0l38u0Z6sTJJMc+QbHbVIJADGZjMJtUnZRZt6ZSwi466Ug0HZOYgOkErpWoV8msT+ZEoyEpzX38Ov3wKT/YNSTmcqyzT+2XZLcovFjb87miiwfBTlXUmWEgSaW3QyfBv3yYKegEhtXxUogtku5om7Z/wY6WRn/78UPxwGLvm7K1jkk97lXOMc7FQ2yLGDqfY3Gh8qUsCIotOd6iOf3aGbNm/KV4oGIbC0RFMUba6uJX9DPrxGoz9t1gW/oT7M/9fJn+8ONpm+T80drWDL5MdUxavsVtmnvjevXzJz12Hf9KV8JH+Rrs0f3cEHPVj1w3Cj3dofvK5obfax1jF0Z8hgAEIAABCEAAAmch0FnQyQtwvbC1icVai6tn7Kc7+ZbEyS2QJdHSi2W3ENefN1zkPmMcnsmnbk3NJFNFQtrQkT+/q0TSJLO+b50EuqRVHVONrZPaOqEu4uOTTpsQq769zfHaVNlZ9u18qfxVSXjbV21r+X62oGPPTTWG823JjsL/Rkz8/kaf1TWhOKZkUY0RrzP62l7E8M9YfLC+NbZ7jo3jyjH7YhaKJCb+c3qy273/pq2x18fQ6sb00/bHajBrXjNs9p9iOheTevut2nSsW/osYtDkU44910ex3fBKYxT6W0n3iV15LqYx37H/LAs27IQABCAAAQhAAAKWwG0Fnebid+6nCesvutZYuD2qj77ku5UoxG9oY5LUTAjfsZB9FA/Gff/50aep1p0CbZ2VMQnH6AQ17DdtfeKmfi6V7t7LBRSfkLrtzeuHLQYpLiYpbI6vi0fFeaDtDO/1z0by+zi+T0ydH3URoOQS7CuS2jhuM/EufOiwo/Ahs/DjKbb67ofFcb1vVzg3k3LNbyYhd7aavpu2VD6VfWe+ZnvBLrJw25oFo9A26bXV1tmhtiddFlxLDbT9MXZG/3yMksaNPZaB4ZYZ1KzbNmRtSNvKnyYnxVHfveTtKws6rr+qCOqO07bPxUNxluJgPuf09eKKLi2zDT/bhRGfIQABCEAAAhCAwFkIdBZ0YlEhLVZlMVkuAGVhyavwya9dybdeKJvFa16sH2MBTIxzbB/FoktTKQHThYp2Qlr6MZeQmrZzCZ3Rb5HUyXXkit69LUVSKLzN+DcUdFKyX9kmfUvCXyb1JZdw7HsKOl12JBvDNbYoYhguzYRfH7PE2e/X+nA+lpy7knv52ZnEN/mg+PptZd+Zr9mufZC+3LZmoSK0TWxbbV0favusTzLWrD/GTjlec3bvm3ZGFvpYaR9frV3N+Oo2vq+yYNrSZ+Zccsjby/nc2pGO07bPxUNxFi2l2GjbD/L+LAs27IQABCAAAQhAAAKWQHdBp7lA9As7mwjYxTuf3UK4K/m+xjMu2o+8KE4L/oMs0p/dni5NuVhUuppJSIu4hWOqu2riTwLTN/dV3wvne5HolQlkFa/iWOnX2m4/x+OMXYtJccP35GOxL/Tfuh42xzA+NI9p9J9YmPZ+u9nW7LM4ZoGzYRXGLrm2/HXH2e1NWyr/yr6Tr9aOwod2XG9qawo01vbUl7K37c+M/bF/d412fV/TjzyTqL6e17Fq2yDnQx2DVlwq31ps47ktNs3xKbb7fuo1gD9G3QG05ENln4rBHvvswojPEIAABCAAAQhA4CwEugs6sgDNi9SwqK0TvrzQ3GMhdpYx+pLvyNR+s+sXzZfp46cP3T8JOQsX7Lz/fOnTVKugM3fHnbFFdPdL3u4Ts9aDf41m00Naf/9++vjjr/lB1SaRDImfTgjtQ5HtHWk2mY7nzEX/9LNxHjV8cYUusS3Z6xNJO0b2P+nV+OG2N5NWe9yCHal/SWhtkUOesbWULJtxr3KuxnD+Wgah0FBc7307zX2GgfiSXm+JmY1/HEP5L7YWtkXOxd08ln20P89pzu+fpo/qDqNmTOdi7fxzY3z6fvrhO63phn6kGGZ+4ufHq86l8u6bSiMm1qGAe5m5kynaYtv42NhiUk/MG+da5Kp/FhjujCq1os8/WwCqfEzaabN87/FnWbBhJwQgAAEIQAACELAEbijoxMWuft6AWvi+d0H17O27k29JFjRnvcCPSYl7HoF8k/rs7PCvncR0a6qVsKeka+Y5GZJAKb0FzdlE39mWE3R5TkZKktU4YV+doIdkLj9XI7VtJp12fPkc/py6jF8k8jO+6IRTClXSPtkgbatX5XM8P5vJf8sHw1Tb0dJ6yaf+k9C945b9qLi39FEVdBrXf1OMcLY3bZlh9+2PCzFrsYt9LcZL2hrW1TWz0mdZiJn1R7UrtdIoglT+5/PZxqQoSmlfF+bagsd3308///jNCgWdvphX5787H4S/9t3EQus+cKivDa3zYYttdmHEZwhAAAIQgAAEIHAWAjcWdPJCdItF1TP32Z186wUw7/OdHbCoWKAprkfnvGZKEU7dubX2+d0qKKw9RrM/e5cLGj2DRs+yYMNOCEAAAhCAAAQgYAlQ0GkuytdfhJN8r8/0DInCljaiKTS1pb626/uJCzoPKyRxLrxHr3ZhxGcIQAACEIAABCBwFgIUdCjoVHd+vGdhTNv9EisKOvuxRtdrsn7Wgs4Ofu00X42m97Ms2LATAhCAAAQgAAEIWAIUdHZaIJN8r5kQ0pdLuNAUOjhn4r1D4WPnO2XSs3AWnnVzzng9/3lmF0Z8hgAEIAABCEAAAmchQEGHgg536OykgbWTOQo6z59orq0Z+kMzaKDWwFkWbNgJAQhAAAIQgAAELAEKOjsl8yTf9SKaxOJ9TNDU+/ihP/ihATTgNMB/EIAABCAAAQhA4KwEKOhQ0OEOnZ00sHbySEGHZHRtTdEfmhpRA2ddwGE3BCAAAQhAAAIQoKCzUzJP8k2itHaihKbQ1Nqaoj80NaIGWApCAAIQgAAEIACBsxKgoENBhzt0dtLA2okSBR2S77U1RX9oakQNnHUBh90QgAAEIAABCECAgs5OyTzJN4nS2okSmkJTa2uK/tDUiBpgKQgBCEAAAhCAAATOSoCCDgUd7tDZSQNrJ0oUdEi+19YU/aGpETVw1gUcdkMAAhCAAAQgAAEKOjsl8yTfJEprJ0poCk2trSn6Q1MjaoClIAQgAAEIQAACEDgrAQo6FHS4Q2cnDaydKFHQIfleW1P0h6ZG1MBZF3DYDQEIQAACEIAABCjo7JTMk3yTKK2dKKEpNLW2pugPTY2oAZaCEIAABCAAAQhA4KwEKOhQ0OEOnZ00sHaiREGH5HttTdEfmhpRA2ddwGE3BCAAAQhAAAIQ8AUdlxjyDwZoAA2gATSABtDAaBpgKQgBCEAAAhCAAATOSsAXdM5q/Jnsdgtk/oPAmgTQ1Jo06QsCEIAABCAAAQhAAAIQgMC5CFDQ2SleJN87gR5oGDQ1ULBxFQIQgAAEIAABCEAAAhCAgCFAQccA2eojyfdWZMftF02NG3s8hwAEIAABCEAAAhCAAAQgQEFnJw2QfO8EeqBh0NRAwcZVCEAAAhCAAAQgAAEIQAAChgAFHQNkq48k31uRHbdfNDVu7PEcAhCAAAQgAAEIQAACEIAABZ2dNEDyvRPogYZBUwMFG1chAAEIQAACEIAABCAAAQgYAhR0DJCtPpJ8b0V23H7R1Lixx3MIQAACEIAABCAAAQhAAAIUdHbSAMn3TqAHGgZNDRRsXIUABCAAAQhAAAIQgAAEIGAIUNAxQLb6SPK9Fdlx+0VT48YezyEAAQhAAAIQgAAEIAABCFDQ2UkDJN87gR5oGDQ1ULBxFQIQgAAEIAABCEAAAhCAgCFAQccA2eojyfdWZMftF02NG3s8hwAEIAABCEAAAhCAAAQgQEFnJw2QfO8EeqBh0NRAwcZVCEAAAhCAAAQgAAEIQAAChgAFHQNkq48k31uRHbdfNDVu7PEcAhCAAAQgAAEIQAACEIAABZ2dNEDyvRPogYZBUwMFG1chAAEIQAACEIAABCAAAQgYAhR0DJCtPpJ8b0V23H7R1Lixx3MIQAACEIAABCAAAQhAAAIUdHbSAMn3TqAHGgZNDRRsXIUABCAAAQhAAAIQgAAEIGAIUNAxQLb62Jd8f5k+v1yml89ftjKDfp+IQJ+m3uHw2+t0ubxMZ5Lj2+tlury+vcPp9zd9tA1+/JfPk1xFdrXny+fpZQvNeC2+Timyj9Tmoo+d13Hr0/ulN+0a62v2LjK61ph9EIAABCAAAfPyREAAACAASURBVAhAAAK9BDoLOm/T6+UyXZr/zpXw9YJZ+7i+5LszEVjbOPo7JYE+TU3TdG9y9cik+c6IHCGhfbQNfnwKOncqqKPZ4vnUeR2noNMBm0MgAAEIQAACEIAABK4R6CzotLt4dOLStuqYW/uS785E4JguYtXOBPo01SroPK/Olq9J2/u+bMO+QtnMnlZBYrHYcafvrbF0V0v79bHvfb/oY6fGNrB5s1jfymyR0a0dcjwEIAABCEAAAhCAQIvA/QUdFmwtnrPb+pLvzkRgdhR2jESgT1MUdEpNbH+OHSapjo5vZk+rILHVvNAaSwd2ab8+9r3vF33s1NgGNm8W61uZLTK6tUOOhwAEIAABCEAAAhBoEbi7oHOYhWPLqwNu60u+OxOBA/qHSfsT6NOUKej4RKv8+eTsM5uqhDPoM//0cv7nll8+v9TPsmkkef46on7KWTz+xtpa7HS8zU9BX9+uP0PE9ncpn1flbVa29D2Lp88G23fpyhJXM4Y8o0Z4vrnn1riYhmfM2Gtz+uzjKbFvxM7yKY0sBG7jJmPnn/eVNtcaK/df1E/EioHkg9Wi+jxri297fRxhI32InTZest13KdzlIUViY3rN1/GyH/UMIHes8iE1tZqWWOcD3Antn7WWz8PLJKESf+RwGb+wX3b6V9uX0UWhmcuk4yR9ix3FGA1GXccbLRem8gECEIAABCAAAQhAoCJwX0GnsViremZDQaAv+c6JQNGYDxBoEOjTlCno+H46dWYSzjpZfJ19YLJP3iTLFNvNdcMfoxP5t9eUmObCQGocktjUZ0jUdRKZEsZ0jLTVr23fQ0KvE+6Y6Gr7dDf+fZ8NlZ+ew7UkXHGNx5Z+xv1xn06ynVk2TsG38mHRgZVK3k1sUtHgGkujD49EbIrFpYDJPlw7cNNdexuvsbZjLX1W8bk2jrDRx/hCod4QfUqbKlZ+MPW/qB1TMAxjKY1ZH+I4Otah6JO1koqYyZhQGJKPfoz8YfGh5sXx/lKRtVdpxBWSXuVh22/Tq4zjPF9k1HN8WTBSQHkLAQhAAAIQgAAEIDBD4K6Cjl/o6cXcTOdszgT6ku92spl74R0EMoE+TUmypZL3+A1/kTjmbvO7IuG8TZvNa4RJhG0ymQcORYnKPmWP779RALjWZ+i/4YexK9kxtz0e0GeDK15o9qFxtrNhTzKgLs6oXXUSHXfmvtVYFatyXNfmGu9iXPmg4iGbqsTe7yjH6tFG6k/e2LGWPnvZL98l5llVbGRQeS3tr4uNcpy8huPrO7xMIcv4YOMmventc5qrjvV960KQHKFfjV96V7xTqH+aN30tnDtSMEya88cv2VsYyAcIQAACEIAABCAAgWma7ijomEUpGLsI9CXfZlHc1TMHjUqgT1NrFXTkJyL5pz3XuHcl7TGJq/80ekyI9c+f/v/2ziA3dpsJt29Pvac/GXgXF7kjr+ABbxokUy8hQHDnnmUQZAEeBFmBHkiKVFWxJLFtibaaJ0DglloqVh1+avMrq3XL6+VrRcUMikSk+RW7xUvnGgvm1zX16dg1UxvG2s2h1Ji/6iR+5sCz+S5fWyrZbo+/1liwDOx2Dr/s3+edz1E/TUMivucaec08jlvmU/BwGl9lPDvW3na+U2lnnIVBGWl+kX7P5a8ThZ9lrt0a5fm63uUds1/VkN7LkljOma+7WZ8h35KHOihtxHqenuJX8NxY9pyYg3NNxxrF3UT2vLh9L6N7j3cHZScEIAABCEAAAhCAgCBwf0NHLUJFJF5uEmgz32bBvxmRN0cn0KapAxs6M/DYrIlGed3wNTV08gQWU5nvZNkwt/M5a8Z23aDnwZxrLIx/akNnnVPOKvysue5wWGksWAZ2O4+57N8ZJ59gf3q/C9ycNPMw7lZTwg4Tt+1Ye9tzQ2dvnIXBMmqeh6UhovNfa6SJCPHrgfXYJo6qYWMOwnHvaOjU4y8Z2le55tJU3Gno5ONbGd17vM2PbQhAAAIQgAAEIAABn8DdDR1vAeyHZq8k0Ga+zYJfBuA1BAyBNk0d39BJaWzfqRcNnG2SRAObmzamGPM1sL3Pmfi+jZ8fFru4TDtIgFGbbbcJ4XHT4dpy2OakI4Ytffwmh5W87Tl2O415xzh1knOI8Gwc06xyc9LMXW2sjZH3q+bHfNeKHNu+nxtklUZywFyCfraQqw+rGbdGGVfXW96x55mc/XnSX7vbY1dixLHubZxJTcjXpYL5hVef2adqNe/FKGafOt6OxzYEIAABCEAAAhCAwBqBOxs6W4u8tSHYHwi0mW+zyAUdBDYItGnKb0wU47cRX/8rPPKBqOGknc+C2VAuvZV0vPx61euzbAYY7Ueza56p8fYyPb/M/7SQY1jzXQD1s0t0kV7tcZ9sELQ0hxpzqGOHu3Hyw2d3uLpjyIci1w0yW18aX5v7Kqc93hph2oq5mfG9fW5DROdTPYjYjmeaH1qbvsbz83z0nSr64byWVRjW7su6KnHcGmXCScvha1qL/ud9ssFka3LmOtUpGc/X0RI4JFzGUbl78WSaYV7KQ45j5dOzyDnVLcdejlfj5ObZxtfS7j0+pxnPk8zyG/yEAAQgAAEIQAACEIgE7mvo7C5kobpGoM18G1O7Foz9EGhuEm6bXfVsEEtVGc7FpObnikhPaU8N29kIp+Ofp1fz+RHNmnjGSTHMOdjcZMjj+XeDLM9gCedb45hDqZ+z0bW17+ajgswbIlaO5+VgYy9NpwauZoz89Zu1r/7Y8fO2zkE20+Za9ng79S8x53hmjtMpzuearWnr+TkhiNKis50bMfargDvjZDa6tNx8TNp6ennVd3W5NcoIud50XtGvbUzYmkKIKl9nnqp/2nw5pqonz6kdO6a7rz19Dcsm3L2M7j0+8Yz1uLlL3ryGAAQgAAEIQAAC4xK4r6EzLqcPV05D58MICWAItGnKnMQmBCAAAQhAAAIQgAAEIAABCDwEARo6naaxzXznv+zOXyvplBvDXJNAm6auWRtZQwACEIAABCAAAQhAAAIQgMA2ARo623wOe7fNfNPQOQz4AIHaNDUACEqEAAQgAAEIQAACEIAABCAwIAEaOp0mvc1809DpNB0PMUybph6iVIqAAAQgAAEIQAACEIAABCAAAUOAho4BctYm5vsssuPGRVPjzj2VQwACEIAABCAAAQhAAAIQoKHTSQOY706gBxoGTQ002ZQKAQhAAAIQgAAEIAABCEDAEKChY4CctYn5PovsuHHR1LhzT+UQgAAEIAABCEAAAhCAAARo6HTSAOa7E+iBhkFTA002pUIAAhCAAAQgAAEIQAACEDAEaOgYIGdtYr7PIjtuXDQ17txTOQQgAAEIQAACEIAABCAAARo6nTSA+e4EeqBh0NRAk02pEIAABCAAAQhAAAIQgAAEDAEaOgbIWZuY77PIjhsXTY0791QOAQhAAAIQgAAEIAABCECAhk4nDWC+O4EeaBg0NdBkUyoEIAABCEAAAhCAAAQgAAFDgIaOAXLWJub7LLLjxkVT4849lUMAAhCAAAQgAAEIQAACEKCh00kDmO9OoAcaBk0NNNmUCgEIQAACEIAABCAAAQhAwBCgoWOAnLWJ+T6L7Lhx0dS4c0/lEIAABCAAAQhAAAIQgAAEYkMnGEP+hwEaQANoAA2gATQwmgZYCkIAAhCAAAQgAIGrEogNnX//e5v4/1wGYYEM43MZj8YXTaGn0TRPvWj+DA1cdQFH3hCAAAQgAAEIQICGTqdmFuYbI3K0EUFTaOpoTREPTY2oAZaCEIAABCAAAQhA4KoEaOjQ0OHOoU4aONoo0dDBfB+tKeKhqRE1cNUFHHlDAAIQgAAEIAABGjqdzDzmG6N0tFFCU2jqaE0RD02NqAGWghCAAAQgAAEIQOCqBGjo0NDhDp1OGjjaKNHQwXwfrSnioakRNXDVBRx5QwACEIAABCAAARo6ncw85hujdLRRQlNo6mhNEQ9NjagBloIQgAAEIAABCEDgqgRo6NDQ4Q6dTho42ijR0MF8H60p4qGpETVw1QUceUMAAhCAAAQgAAEaOp3MPOYbo3S0UUJTaOpoTREPTY2oAZaCEIAABCAAAQhA4KoEaOjQ0OEOnU4aONoo0dDBfB+tKeKhqRE1cNUFHHlDAAIQgAAEIAABGjqdzDzmG6N0tFFCU2jqaE0RD02NqAGWghCAAAQgAAEIQOCqBGjo0NDhDp1OGjjaKNHQwXwfrSnioakRNXDVBRx5QwACEIAABCAAARo6ncw85hujdLRRQlNo6mhNEQ9NjagBloIQgAAEIAABCEDgqgRo6NDQ4Q6dTho42ijR0MF8H60p4qGpETVw1QUceUMAAhCAAAQgAAEaOp3MPOYbo3S0UUJTaOpoTREPTY2oAZaCEIAABCAAAQhA4KoEaOjQ0OEOnU4aONoo0dDBfB+tKeKhqRE1cNUFHHlDAAIQgAAEIAABGjqdzDzmG6N0tFFCU2jqaE0RD02NqAGWghCAAAQgAAEIQOCqBGjo0NDhDp1OGjjaKJ3e0Pnxbbrd/jf99s91TO6f32/T7fsfn6rpz84hjv/zr9Pfs6675vPPr9NPF9PM0dcl8a7zeZHn6qoLOPKGAAQgAAEIQAAC9zV04mL9Nt1u6f+ffv/rU41TXoxd4ee95vvv3/83Zb7h9S8/rrdIvsK8XDnHZk2912TT0HnX51vXBorTjKShw2fllT/XPiN3loIQgAAEIAABCEDgqgTaGzpzM6c0Fuy2Yyw+Y2H2VcdsNt/ir+qJ9V/Tbz9f6y6JrzoHj5ZXs6aqhk7Q1K00DB+Jy34z5fza93Po23A4LZ/Y8Ps2/Sk/+yut9a31kbQca/EYS968flfT1erkqgs48oYABCAAAQhAAALNDZ1wl8hN3MYfFkSnGYUHXKQ2m+9Yu2zi/DH9cjOm6QH52AU22/tGuFlTlck+v6nxWfO3/5l0fu37OezP7ZH8TsvHazZUWutb65HcvkQsjzGf/4c0ceT8shSEAAQgAAEIQAACVyVAQ6fT4rjJfEcztHylLX+1rfw0DTW5IOX1eMaxSVNB39JkOxrLX+2rNFSZydQMKXrceFZKbADbZ9nIPObrLjYb5q9whrjlDsCSt7gebLz/QrNTv7/ZvNipPeZs4lVMqs+LthxsbFXnf3tczRiZe+b5Izy3JnBIjV/LoGzH+cy8nLv+LJ+K93KN2XnLYy9a0znXGtPv2z8W+NzNOZnDPCeWsX2WUuYgc095af421/eeF2qQY9nnUeW4Ou+lea/PXea3jmuum0qjy7z5XHn/qgs48oYABCAAAQhAAALNDZ1/Z/NUFrvz4l8bExaGawvmZvMdFuPBeGUz9ePbQ341Zo0T+9uvoWZNZeNfHm7ceJeKaehkA5rn6O/fv60+MDma1KzhbDBNHvEY2aT88W1p6Jhj/81NjxIzmfvyefTf21SMcTnGY+nXnszzYqbLeDK/XEf52ZZDVaf57NzkOh+r65y5z+/ZZoiNl2rTD4tOrERTZ5e3w9LoI+oi5yTvKozHibHm3yXyd0fMcYv1FofSONmev8yhjBvzSg0uvU/mujRl9DGN50ktGg45n2Vu58ZSdY6sa9a5ZCWvm6JNZ754b/XOHpaCEIAABCAAAQhA4KoE7mjohAWi/gtpWeCyUFxdKGbz22y+Z2OaF/lh0Q9nzEnWkfzZrKkVs541JmOq18qw+40Qdbz4HIgNA2lMw3smj2ho7TFzjPBelZ/Ip2qSiPNKM1Tks+Tp1GHyKseu7Z/jtuUQPjN1gyDEX2p38hF5L8c510DMr/58sOfEbdkAiPH1uOGYLd6FicgtNp5l4ya85+akx2rRhh3P1qTeX5sns7+OkfLSetG56rnKc9BwXhxbN2JykzBzdudFaDzWaLeVdnI+/FR6kBptfH3VBRx5QwACEIAABCAAgfaGTrWw9Ba1LCzXFpb75nvmKb/yYV7T2EFfUl/7mpp5GWNrjaWMqV7baz5u669+qOOFeWoy7TGvEM82PLauhWSS3QZEk9lNsbOpjvmHuqqGR2CXjl277ppyKDWmOzqWr6uJO2ZWuW6PbxtkeS5s48Ju18ft887nqJ9WH6Wh489nZh7zMZ9tiYs9L1/vOxwa56/mkOLmvFJt9b53nVfmtJ73PF4dd747UzbJVhl7103mxU+lU/G5tLafpSAEIAABCEAAAhC4KoHGhs7Kgroyiiwk1xaMzeY73gWV/7Ib/rqfX8N2je2o+5s1VV2ntWl1GXpmUn61aUObTQ2dbLSK+c2GfuXzJh8/N26yMZa5uyZZnJebNOrcMP6pDZ22azgyE8/CybmuNZSObuisjqP4ic8hTx+V1sLxWm9hjhT/tfhl/44eGuev1obOK+mo3veu81ZzWvjVcRsbOplL5E9jR17/73191QUceUMAAhCAAAQgAIHGhk76qlW14HcX78uC9b2Lq0c87y7znc1lWLCvfCXlERlR033Xzl2aUnfB1KbVZR8N41ozYuUzYTabsTmRdawMaG7a2Fp1Tq7ZzXHynTg2fvWcHTtG2NbjxLrXPsfW9s95xBx3c9jmVHPXx29yWMnPnmO305h3jCO4q3w9fbg5aeauNtbGkKzXPgvdMfPXvxa91Rx0Xqm2et+7zlvLSdRZx72zoRNj1fmqORLjsd/7PEj7WApCAAIQgAAEIACBqxJobOjkB45Kc5cWkv5fttcXTqMuKpvNt2jiBONz31+y4T6Svpo15ZhL10xa86cM+1/Tb99/nf4ux+iGQMU9jimf75KOl1+v+vN7/XlS9B7Hlucng/7L73+l51XN8cvx8s6hNeM/5+7VHvepO47mz7etWI051LHD52l+oPQOV3cM+VDkpWGR58DWl8bXd8VUOe3xLvMuPmNibmZ8b59tojk1xeez3c06M8wPLq71JBvilovb3LO55uahys1roth9/u9Hqfk6H6eh4/CUMWwNMWbVZBRz5s0j+666fiNvCEAAAhCAAAQgMDU3dIJZWL4SMD8XgIXj7sOQs8lqNt8srpuZZraj/mzWlGMK88Nrw7NLZFNEsbQNnZ/180CqO/aMdvXnxbfpT5NHaiosMas85ibD8twZadjzHRj6fNckm7zWat/Nx8YJ23NzIucYavBysLGXRsNs/MUzZSquZozSRDc889zZ8fO2zsGwDLXs8XbqX2LO8dycbLOj5iYbfbmO6ucahzmvJZekCaunzGGJ6+R1WEMnNFHquZU51fnkOdBzs9SV9i/bdZ3xPX4v3/07hLUgBCAAAQhAAAIQuCqBuxo6y0KYv/jdy6LZfDum6d6xOH4MfaKpMeaZ65l5RgPnauCqCzjyhgAEIAABCEAAAjR0OjVQMN/nLshHNDxoCk2NqHtqRvdHa4ClIAQgAAEIQAACELgqARo6NHTuvj396MU08d5n0GjovI8beoMbGkADUgNXXcCRNwQgAAEIQAACEKChQ0OHhk4nDUgDccRrGjqY0iN0RAx0NLoGWApCAAIQgAAEIACBqxKgodPJzGO+MU1HmyY0haaO1hTx0NSIGrjqAo68IQABCEAAAhCAAA0dGjrcodNJA0cbJRo6mO+jNUU8NDWiBlgKQgACEIAABCAAgasSoKHTycxjvjFKRxslNIWmjtYU8dDUiBq46gKOvCEAAQhAAAIQgAANHRo63KHTSQNHGyUaOpjvozVFPDQ1ogZYCkIAAhCAAAQgAIGrEqCh08nMY74xSkcbJTSFpo7WFPHQ1IgauOoCjrwhAAEIQAACEIAADR0aOtyh00kDRxslGjqY76M1RTw0NaIGWApCAAIQgAAEIACBqxKgodPJzGO+MUpHGyU0haaO1hTx0NSIGrjqAo68IQABCEAAAhCAAA0dGjrcodNJA0cbJRo6mO+jNUU8NDWiBlgKQgACEIAABCAAgasSoKHTycxjvjFKRxslNIWmjtYU8dDUiBq46gKOvCEAAQhAAAIQgAANHRo63KHTSQNHGyUaOpjvozVFPDQ1ogZYCkIAAhCAAAQgAIGrEqCh08nMY74xSkcbJTSFpo7WFPHQ1IgauOoCjrwhAAEIQAACEIBAbOgEY8j/MEADaAANoAE0gAZG0wBLQQhAAAIQgAAEIHBVArGhc9Xkr5R3WCDzHwSOJICmjqRJLAhAAAIQgAAEIAABCEAAAtciQEOn03xhvjuBHmgYNDXQZFMqBCAAAQhAAAIQgAAEIAABQ4CGjgFy1ibm+yyy48ZFU+POPZVDAAIQgAAEIAABCEAAAhCgodNJA5jvTqAHGgZNDTTZlAoBCEAAAhCAAAQgAAEIQMAQoKFjgJy1ifk+i+y4cdHUuHNP5RCAAAQgAAEIQAACEIAABGjodNIA5rsT6IGGQVMDTTalQgACEIAABCAAAQhAAAIQMARo6BggZ21ivs8iO25cNDXu3FM5BCAAAQhAAAIQgAAEIAABGjqdNID57gR6oGHQ1ECTTakQgAAEIAABCEAAAhCAAAQMARo6BshZm5jvs8iOGxdNjTv3VA4BCEAAAhCAAAQgAAEIQICGTicNYL47gR5oGDQ10GRTKgQgAAEIQAACEIAABCAAAUOAho4BctYm5vsssuPGRVPjzj2VQwACEIAABCAAAQhAAAIQoKHTSQOY706gBxoGTQ002ZQKAQhAAAIQgAAEIAABCEDAEKChY4CctYn5PovsuHHR1LhzT+UQgAAEIAABCEAAAhCAAARo6HTSAOa7E+iBhkFTA002pUIAAhCAAAQgAAEIQAACEDAEaOgYIGdtYr7PIjtuXDQ17txTOQQgAAEIQAACEIAABCAAARo6nTSA+e4EeqBh0NRAk02pEIAABCAAAQhAAAIQgAAEDAEaOgbIWZuY77PIjhv3dE29Pk+329P08nYdxq/Pt+n2/PqpCX92DnH8p5cpT1vXfN5epqfTNPM2vTzdptvtnjlO5zztiPgoRrtx4jX1PG0q9AyGLeN2ump2GXXKg2EgAAEIQAACEIDAIxC4r6ETF4Xzgvp2m/YWyY8A6KgaTjffRyVKnMsQaNbUew0iDZ13aeGzDWsc/wEbOu/jSkMnipiGzruuZU6CAAQgAAEIQAACX51Ae0PHmrtoEm/TJ/8x/KvzLfk1m+9yBi8gsE2gWVNVQ6fN5G6P/jXf3Tf959e+n0Nfdqfl4zUJKq0dVet7563tvKMY7cbxmFlEZzBsGdfmcdL2LqOTxiUsBCAAAQhAAAIQeEQCjQ0df1H89vI03cRfgh8R0FE1NZvvowYkzsMTaNZUZRD96/kRgO2bxfNr38+hL+nT8vGaBJXWjqr1vfPWdt5RjHbjeMwsojMYtoxr8zhpe5fRSeMSFgIQgAAEIAABCDwigbsaOtXdOHHhufM8gEek9o6ams339Do932D6DsTDndKsKWkQ4+vla5PheSSrX52sTGAyx/EZJuE5JhvPSonNXvuBIfOYZyuauxgr5aROsbmqN0OAcK2IWp5fp02zaOOZ2mPOJt6+qNpysLF1KXtczRiZe+b5Gp5bEzikzw3LoGzH+cy8nGcjWT46SYXCzlsee8o5vemca43p9zf/MGDzusk7Q02czKZk6zV0zDkrutmes3foL54SnksV5knnoPgUhqWIaZqsRiSD5Tibc3melL2WM9ONP8jYOdZy0Pmrz4IcO19LZoyix5x24/E5H8Uqx+AnBCAAAQhAAAIQGJTAXQ2daiEVF4mOMRgU5lbZzeY7BMkLXLMQ3orPe+MRaNZU1JO8Tj2T6/AzJtAasbeX59UHJkdjqR3grOslj3iM1Pjr8/IVzpWci0GdDbH8TCpm1o6rSvNrT2ZRNlJnAy3zU3HCRjK1ezlUdc7Xd05zk+t8rB5j5j6/Z5shNl6qTT9IOLFa5mJpxOQi5/pzknm3/Gn0Ed/KOcmmdPV7InGToWOOm6ydeXPYTHEs2eyw5x0zZ61zL3HF13N+pQEWdto64raYm9z8kcDsOUGN4YHgkns4L5+j5qpmYPOsNFtdm7oRLD8LXp+d6yjnkfNU2w3HqyaezZZtCEAAAhCAAAQgMC6BxoZOWHM+mb/Ip0Wh+svcuBx3K2823zLSvGi3hk0ewutxCTRrqjKI1uSuMFQmsPGcOVT8vBCmLe42edjGg8wivCebGPE9kU9lOOeTt2KmQ5w6TF4lj7X98wFtOYTPSWnO08lLnk4+JYHZpFuO+f2Yn2xe2Nhiu2qW6HH3eOch1U8xH2W/m5Meq0UbJV55oWOE3QvDclB8offr846Zs/n3YcV0PaeSYWRW60HlZXSn3iuBTA7mHHFYelnmav69vaap+UTNUEfbek8fmbZs/nvnu8c7rL2x2AcBCEAAAhCAAARGI9Dc0Alg4kIr30Yd/hIYF5Hyr2uj4Wuvt9l8eyHjYlz/hd07jH1jEWjWVGX2tMldpVZM4HxE1qG6C8A/O35WWNNo84jb4a4Ca3BTfstXu/LXhJY7EIIprBo+GyZ/ydKpPdTlGsZ0rC0jx2rKodQoa5hf58CrXLfHr++qSZlZw2y3Zf7pjqd93vkc9dPqI7xp5zieoJnHfMrvEcnF6kCOpmPkryBlhPLIeJdOmU993lFz1hRHJTVveMzCW3K/Ybg2VmI9//4N55eanYFj/KfpKfyz7y40c07RrZ2TxHMvRDXHIrf4nglw7/EmWzYhAAEIQAACEIDAsATuauhUlPYWkdUJ4+5oNt8KUVo8B2Nr1r/qKDbGJNCsKWMQsxn2GiKKpDSZ4o2lsbvezG1q6OSYcZxg7LN53DeNaybXM4t5mPRTG/y4b/VzbDuPphwi+3VOMrea6/b4fvOkvktkjcmyf2ccmaR87emj0lo4QTNf4yZD1691jBzT/VxU86nPWxt7YZGbUttz1hSnLkI3buT7kqVhuDbWuxs6orkiU3Bfx7zuuDZj7rppFHUtxqxZ33G8myQ7IQABCEAAAhCAwLgEPtDQ0QvlcRG2Vd5svkO4vCguBrdtDI4ai0CzpoxBzGb4vQ2dRDl9faZWOQAAIABJREFUdcM11FHCzr+AF81hbtrYudKfJ8r02UPznTjCJKZDUoztOxD0OPG8is884Nr++e2Y424O25zmUOKHPn6Tw0p+9hy7nQa7YxyRnXopmxD5DTcnzdwa/Hzq9k8dIxzr12X36/PiOQfMWVscpyKPma3FMFzjpfabc6qRy7iJx+bdPNXJDsOVC1/lNMex++S82ffCKXafPL5KjR0QgAAEIAABCEBgcALtDZ3XF/UAVH9BOzjNjfKbzXd8AOb2X4c3huGtgQg0a8oxe00mqZjAAPVtenl+md4KX90QKLvzizimvLMsHb/chROMt9S5No31w21To/P5Zc5gji+bUtEIhq/yrJjNnJpXe9ynvko2G9+tWI051LGDac0PlN7h6o4hH4pcN8hsfWl8/RW1Kqc413K+DO8MT/6MuZnxvX3mDp3csJZzFx8yvMXaxgh5OGySbmRORlfOOZ5uKj5xuDxn/theHIkrvp45q4aKZV8xnK8dyWeuQ+6qc157KPKs7aqxtWS7eW26DGc26jNj4STrjXnmxO89fk4xsZafH0vuvIIABCAAAQhAAAIjEbijoRP+uVXxvIO8IBuJ1gdqbTbfHxiDU8ci0KypyiAKo2X+6W5FUJmt2QSKz4C9j4BicOM5+Zlbi9lOBnT5TNEGPz9XZHlf/ws+uobw2RTOV2ZRFSM2ZkOaz8nv7OaTD5Q/Rawcz8vBxl6aTg1czRjFHHvzau/2ENs6B8cMz42F5XPeOUbWnmPn+Q3vuTmZpko5Ts7togszxLzpxHDj2Jyd8wzPNd1oXk6jsDGOqidfU4a1upZchrkhmpn5vGzOJW4etyST47XFqa5NU3vRpNLELT7X5zX8gwqieRRzLInNd1Tlz5Wnl2nv+DTt4R9psHNdiuMFBCAAAQhAAAIQGIZAe0NnGCTnFNpsvs8ZnqgPSABNPeCkUhIEIAABCEAAAhCAAAQgAIFGAjR0GkF99DDM90cJcr4lgKYsEbYhAAEIQAACEIAABCAAAQiMQ4CGTqe5xnx3Aj3QMGhqoMmmVAhAAAIQgAAEIAABCEAAAoYADR0D5KxNzPdZZMeNi6bGnXsqhwAEIAABCEAAAhCAAAQgQEOnkwYw351ADzQMmhposikVAhCAAAQgAAEIQAACEICAIUBDxwA5axPzfRbZceOiqXHnnsohAAEIQAACEIAABCAAAQjQ0OmkAcx3J9ADDYOmBppsSoUABCAAAQhAAAIQgAAEIGAI0NAxQM7axHyfRXbcuGhq3LmncghAAAIQgAAEIAABCEAAAjR0OmkA890J9EDDoKmBJptSIQABCEAAAhCAAAQgAAEIGAI0dAyQszYx32eRHTcumhp37qkcAhCAAAQgAAEIQAACEIAADZ1OGsB8dwI90DBoaqDJplQIQAACEIAABCAAAQhAAAKGAA0dA+SsTcz3WWTHjYumxp17KocABCAAAQhAAAIQgAAEIEBDp5MGMN+dQA80DJoaaLIpFQIQgAAEIAABCEAAAhCAgCFAQ8cAOWsT830W2XHjoqlx557KIQABCEAAAhCAAAQgAAEI0NDppAHMdyfQAw2DpgaabEqFAAQgAAEIQAACEIAABCBgCMSGTjCG/A8DNIAG0AAaQANoYDQNmHURmxCAAAQgAAEIQOAyBGJD59//3ib+P5dBWCDD+FzGo/FFU+hpNM1TL5o/QwOXWbGRKAQgAAEIQAACEDAEaOh0amZhvjEiRxsRNIWmjtYU8dDUiBow6yI2IQABCEAAAhCAwGUI0NChocOdQ500cLRRoqGD+T5aU8RDUyNq4DIrNhKFAAQgAAEIQAAChgANnU5mHvONUTraKKEpNHW0poiHpkbUgFkXsQkBCEAAAhCAAAQuQ4CGDg0d7tDppIGjjRINHcz30ZoiHpoaUQOXWbGRKAQgAAEIQAACEDAEaOh0MvOYb4zS0UYJTaGpozVFPDQ1ogbMuohNCEAAAhCAAAQgcBkCNHRo6HCHTicNHG2UaOhgvo/WFPHQ1IgauMyKjUQhAAEIQAACEICAIUBDp5OZx3xjlI42SmgKTR2tKeKhqRE1YNZFbEIAAhCAAAQgAIHLEKChQ0OHO3Q6aeBoo0RDB/N9tKaIh6ZG1MBlVmwkCgEIQAACEIAABAwBGjqdzDzmG6N0tFFCU2jqaE0RD02NqAGzLmITAhCAAAQgAAEIXIYADR0aOtyh00kDRxslGjqY76M1RTw0NaIGLrNiI1EIQAACEIAABCBgCNDQ6WTmMd8YpaONEppCU0drinhoakQNmHURmxCAAAQgAAEIQOAyBGjo0NDhDp1OGjjaKNHQwXwfrSnioakRNXCZFRuJQgACEIAABCAAAUOAhk4nM4/5xigdbZTQFJo6WlPEQ1MjasCsi9iEAAQgAAEIQAAClyFAQ4eGDnfodNLA0UaJhg7m+2hNEQ9NjaiBy6zYSBQCEIAABCAAAQgYAjR0Opl5zDdG6WijhKbQ1NGaIh6aGlEDZl3EJgQgAAEIQAACELgMARo6NHS4Q6eTBo42Sqc3dH58m263/02//XMdk/vn99t0+/4Hmi6a/mv67efb9NPvf43H5EvqN83H7baj05j7bb7+Bp7DouNzP4Mus2IjUQhAAAIQgAAEIGAIvK+h88+v00+3b9Of3mKrLETDYvQ2/fLj3IXY0Sb5rHj3mO+/f/8f7DxtsU+Z8mZNxev1HY2ZL2mItz9PaOhYPgM3A76gfpv0WV2vA89hp898sy5iEwIQgAAEIAABCFyGwH0NHdWscRo6dgFttzstzs5qynwk7n3mm0bYR1iPcu59mpINncc1iPuGuVftf0y/HNbQbs3ZG7P1XNsIYvv4z5HGuYi/N+Xv18bzBv79+tG5usyKjUQhAAEIQAACEICAIXBHQ0eYhWrBGRb//qJz32CNYRzuM99yMT8Gn48uyEc8/z5N0dBJGvE/p47Xj/i8/LDRbs3ZG7P1XD5njteAZdo4F9Xv18bzPqwzm+8422ZdxCYEIAABCEAAAhC4DIE7GjpicVctON+mf6vbxNPx8etDP/86/T34YvM+801D53xzJfR8UW3ep6m5oROv0/R1yPgcj9vG81Wq6zwZy3ze1vN14nVvn2XjfEbEhm94nsj8v/qKps3VxvsvNTDyueHZOZsNZBvP1J6/6ijj7enQzT9yW2oK8UpdNgfz2Zjzz3F/+n//d/pJ8Amx3OfhrI65NANyzFifGTfUqd7fe3ZSnssf4eu3udb5c0vlUn+W6XEEm3Ad5rj/GK2puV9q0nNmxjL6jeN+/2PaPKfkkGsKvP9oew6Rqvs23SRjO+9SE+Lzx7JJMZZ6Fz0aPiZerrU6XnEM149s9F7/M3Gp975aLrNiI1EIQAACEIAABCBgCBzX0DGL57KwWtsvFrHl2Afed5/5NsbkgbmMMPdn1XifpqRx8wyiY4DMtWtN4t+/f1t9YHJLQyceI03vj2+m8VHnvDzwODVzZHOjGHVlWm1dfu3JSMvrbjbMMj9zHW7mPzebSiNnPvfP784YIt9s6PV5fs61rtbv0FFNpTk3yc7O7b9x7iV/wzE3KAqfmVdo7th9or7QsPlFPqDZjpPjqkbD3LgrcZaxqhrks908/aqG2BynxM0NJd1kynMix7Lsk/Y0rzVNbcWJcU3e9d2vlseSd4ltYxSuQn/2GKNvW+Mjb5t1EZsQgAAEIAABCEDgMgRo6HRaxLaa78okdsrvkRfrj1pbq6aWux6yKW9sECjD13jOrNeoY2mUw/5oKhfTWzURhNbDe8Wc5v0in7XrZCtm0oFTh8mr6GVt/5zP9lhecyXzX37aOmLM0hDJxzk5ZybqpzdmOndphKWYatxYpzD6MebOmB6bOD/L/EaOYs4K162cY1zdUKnj+DX9a5toZmyXrXeM1e3K14mXejzugbPdv8M0czE52YaOmrt8zn9v6c6jop0w9jIX8Zzv35x9/ItwYR75DwIQgAAEIAABCFyVAA0dsSBeFujZSB33s8V8ry3Uz8yL2MfNcW+WLZqKOVXm+53GMhrN8FUUa/5rhslAGrNo85jNe/3Vrdmwl6/yLF9/yWMHc141fPLXhipDLvNzag91FSNcH6vvlhHvr+YfjrFmfjkvNhZkbWLs+F6Vv5Oz+7nljemfqz5ryrxKzum1x9jX1NuU7uox2qiaE7mxp8cqjK1Gcp1qv1+TbXzYfFy2Kr8Ut+SSx95r6MTcTN3zuVqna3kv2ohsVU7hPX2ejinOVXnU54S6lnPXahXxSv2Pv++qCzjyhgAEIAABCEAAAsc1dNSCe1kAKuMw0ALRmvtW8w2vRTuWIduaTaum7J0x1iCucq2MZRo/ajQ2JHwTG+LFY2xjYuUzIhnvYPDzHQX7ZnMxpppJ2G/vRtH1aaMb3wt1iqbKcvx+HuX8yCPnH3Jymiuxfp2fvd79/J2c3c9SZ0zTDMi1qXFX69ds87nxpzeXnl7MvlhfmWeHkxc31Kr2r/Ew+72xrSbVMWvzbeJa9jE3/1rQOt2Jk+OqnAIjfZ6OKebI5LHMcdDFnF+IHbRujlVzm/MY6CdLQQhAAAIQgAAEIHBVAsc1dDwDM//FfPWvvAMtGO8z3745GH3RTf3CvP33Nt2nKdls0AZxlWtlLOX4XvNgeX8xk8u+7eey6Jz8xsYSK75fNWFSjLsbOqpZsIyhmwhiv/u5pfP3GjoeE7vPr9vGXsvFmxP/XDXuWv1unfPY3jmeXtQ+Lz+zz4ubG4Rlvv2aqvlSY88PfW5o6NT6STmu/x4zNRRudv9K3uX4ma3J2zZ01NyJc6v9keW36c8Qr9QdcrL71vQ0zv6rLuDIGwIQgAAEIAABCBzY0Jn/Kp//EhgWmtXCdJwFojXJ95lvGjqWH9v1tXOfpmRDZ8XcCnMYeavr96/pt+/yX6uzZtXkF82kfBZKOn65CyfkIHVuzG4cW56f7tIoD9Sd40uTHQ1tuFOmmFeT01yf1zSJ++Rn13xXxFaszfzNXRU1z3zXiXyI8Pq8eDnX14RhGOv19tnnraRj7F1Kuj7D0mu8KL3Mx6t9dS6Ju5jneV7zV+tijdVcz/mqf9nJqUGNvcLWHJPvFpNfu8o5Sq1Z9kl7zjVWmlCBR12/jRO3bU7VefO1JHU+M5J55/H0A7EXdrKelL+8Hs1828+GB9tmKQgBCEAAAhCAAASuSuDQhk5YjBZTtfOVDHch+2CLRFnjfeZ73IW1ZMbrbVN1n6a02Ux3M+w8J0UZy8UIxn/2WplpP8/qs8A0AbJRzvGkwYxzH8eXz1ox10Ux/0sdTY0PcZ4cczcf8/m0e7zIPxttdc7Pv05//v4/9XWv1fxXcq6ukWpMv4kQ58ZpNuS5CD8lm2ocM5fLfJk5UhoSTaz4+yE0ckxjMMdV/xy6zSXXlP458ZKzqqf+g4LL1uYX5lgwDLF/+ZHH+2uqOAhNaL17jcW2OPUfQrzzcoM0Xx/m+p7zSjnpOUn79PHecVu1Ptp7V13AkTcEIAABCEAAAhB4X0NHLGIfbWF3Vj33mW+9AD8rJ+L6jYircGnWFNfrphG/ynwPkWdu6PyzdW16DY6t4z/6Xu/xPpov5997rbAUhAAEIAABCEAAAlclQEOnk9ltN9/mL9ad8rt3Aczxn2+a2jX1+bmiF+agSQNfsaHTlBPz2zS/X/T32VUXcOQNAQhAAAIQgAAEaOh0WmDeZb7nW/7z1zSuvFAm9/OM3l2a6qRz5vu8+R6CbVPz5MQ7Zn58M181c55Xw7X0cHe8sRSEAAQgAAEIQAACVyVAQ6fT4hzzjdE92pCjKTR1tKY+Pd5nN3Ti+Pm5NPNP+fDhTr8vPn0eBqvzqgs48oYABCAAAQhAAAI0dDotXDHfmO+jTRqaQlNHa4p4aGpEDbAUhAAEIAABCEAAAlclQEOHhs7D3T4/iiGhoYP5HkXr1InWz9TAVRdw5A0BCEAAAhCAAARo6NDQoaHTSQNHGxIaOpjcozVFPDQ1ogZYCkIAAhCAAAQgAIGrEqCh08nMY74xSkcbJTSFpo7WFPHQ1IgauOoCjrwhAAEIQAACEIAADR0aOtyh00kDRxslGjqY76M1RTw0NaIGWApCAAIQgAAEIACBqxKgodPJzGO+MUpHGyU0haaO1hTx0NSIGrjqAo68IQABCEAAAhCAAA0dGjrcodNJA0cbJRo6mO+jNUU8NDWiBlgKQgACEIAABCAAgasSoKHTycxjvjFKRxslNIWmjtYU8dDUiBq46gKOvCEAAQhAAAIQgAANHRo63KHTSQNHGyUaOpjvozVFPDQ1ogZYCkIAAhCAAAQgAIGrEqCh08nMY74xSkcbJTSFpo7WFPHQ1IgauOoCjrwhAAEIQAACEIAADR0aOtyh00kDRxslGjqY76M1RTw0NaIGWApCAAIQgAAEIACBqxKIDZ1gDPkfBmgADaABNIAG0MBoGrjqAo68IQABCEAAAhCAQGzogOF8AmGBzH8QOJIAmjqSJrEgAAEIQAACEIAABCAAAQhciwANnU7zhfnuBHqgYdDUQJNNqRCAAAQgAAEIQAACEIAABAwBGjoGyFmbmO+zyI4bF02NO/dUDgEIQAACEIAABCAAAQhAgIZOJw1gvjuBHmgYNDXQZFMqBCAAAQhAAAIQgAAEIAABQ4CGjgFy1ibm+yyy48ZFU+POPZVDAAIQgAAEIAABCEAAAhCgodNJA5jvTqAHGgZNDTTZlAoBCEAAAhCAAAQgAAEIQMAQoKFjgJy1ifk+i+y4cdHUuHNP5RCAAAQgAAEIQAACEIAABGjodNIA5rsT6IGGQVMDTTalQgACEIAABCAAAQhAAAIQMARo6BggZ21ivs8iO25cNDXu3FM5BCAAAQhAAAIQgAAEIAABGjqdNID57gR6oGHQ1ECTTakQgAAEIAABCEAAAhCAAAQMARo6BshZm5jvs8iOGxdNjTv3VA4BCEAAAhCAAAQgAAEIQICGTicNYL47gR5oGDQ10GRTKgQgAAEIQAACEIAABCAAAUOAho4BctYm5vsssuPGRVPjzj2VQwACEIAABCAAAQhAAAIQoKHTSQOY706gBxoGTQ002ZQKAQhAAAIQgAAEIAABCEDAEKChY4CctYn5PovsuHHR1LhzT+UQgAAEIAABCEAAAhCAAARo6HTSAOa7E+iBhkFTA002pUIAAhCAAAQgAAEIQAACEDAEaOgYIGdtYr7PIjtu3NM19fo83W5P08vbdRi/Pt+m2/PrdRJey/TtZXp6D/s4Z8/TAxBYI7Oy/216efqCcx/n47ZzHc253+b8h53DlallNwQgAAEIQAACEIDAKoH3NXSi2dg2DW8vT49hrFbR3fdGi/mOZvQ9Ju6+VDj6QQi0aCqW+qHmAA2dT5HLh+Zs+7P5U+o5fdAv2NBpnMOqCUlD53S1MAAEIAABCEAAAhB4FAL3NXTKXxvDXxx905CaEuH9L/jX0k+ctVbzHfk9vUwXuiniE6mOPXSrpqbKWCbz+3SlW28ap7oyx9V5F6m9mrOqkCk2ze1nBc2AGtRn7WmaC0ePTed9VlGMCwEIQAACEIAABCDwlQjc0dB5nZ5vtyl+m2FtwSn27xurr4Th/Fxazbdr0s5PjxEuSKBVUzR05OQ6Blq+/VVe09D5KjPx/jzE78P1II4em85bj8g7EIAABCAAAQhAAALjELijoSOgNCw4aegIXtM0tZpvGjqaG1vrBFo1pRo6sVEw30EX7qK73abVO3Wq6zyZz3j3XTx3/etY7lcunSZF/JyY8whx1eNvbK7qzcAlNZlLPs+v0+bnjo1nao85i1zansVjcjB3zOR8dOz67kb9/tP08rr1DB07D7fplsfNc2ZqrdCZ9/dqzXXI+Uq60blUWrLj5DxnWee4U8w769LoKtdk5luPZRojcdwQR8+PPiclIWuKd56W8davvWnSdVvt6phifmRIyybr3x1f16GebVVqFcFjDM3RvSbFKbyEAAQgAAEIQAACELgeARo6neas1XzHRbcxPZ1SZJiLEWjVlGroxBqN+V2r2xjLYr7n499enlcfmOyaR2M8K62/Pi8NHXNsMdClM5EMrjToMV5oyJRjvML82pMBl42W2bBvXospBzlcjCPOycZ+yXOOK05Kecuxs3nXhtxWU/ELB8Q50w2EKv4uWztSCJuaLSXtPE5uQpSxdc6vz7KuuvYcV85ZylfEKWOJWLEG2Yw08zq/r74aHOOIuBGXZpWulVCrGKvCMc9PgTFN+bxlnvNcbMUJgU3ehaM4r6o1x84N0DpG5rrkUx9TlcUOCEAAAhCAAAQgAIHLEaCh02nKms23Yzo6pcgwFyPQrKkVA7+YvZXCoxazsbzPEEZTLg1vGMLkEU2nPWZOJbxX5SfycZsZ2aCvxEyhnTpMXoXG2v75gOYaRYMnnirqyHcZVSnvjB3iuAzczw/deNpjW+oXL+q5ShxlI8ZtTogYXs4xruVjmxxuTbZ+M6+RX2545CS8Y3SDJx6p5iefu/x0uXvzsRMnRTQ5hZ3mvJp9OlPu11oM8/00PT/Lf5gg7XvAx2YtE8MrCEAAAhCAAAQgMCABGjqdJr3ZfId8Gsxcp7QZ5gsTaNZUpSfHRHp1GmNZ7v7YvHshBdIGcw5u85hNt/r6SDw05Ve+SiW/BjWPHcxs1fB5b0Mn1Fk1FUIiKY+q2TKXEw21yq3+ypA03fNp2rBHBrlpVo5o+gxwGwt2zmJI2dDZZyuyKC/rOjwNefuWu3vKfArWddw0pNrv1mQbH2Zsq7UY1hyzNu9r4800Qm6e9tLntpjLnTgpnMkp7FTnpfddDcr85Tmh9sBYakseO9fBDwhAAAIQgAAEIACB6xOgodNpDt9vvjslyDCXI/B+TTkm0qtemkTxfmwkxEaGMK/i/fCyqaGTz4njhGZIvltiw8TO56yZatUIyPHVT6f2VbO7ncdaDnI4Nx/JVZpueaLbkJAH2DtU5vdk7HJ43dBxGwTl+PpFXYfD0d5ZE2vQX4GzTag6bhpb7Xdr8hsfpdHi8jM5r8372ngzlpBbGUeisnO5EyedanIKO9V5GxpU+S9zHBin/JZzV3OW+fMaAhCAAAQgAAEIQOByBGjodJqyZvOtFumdkmOYSxJo1lRlbh0T6RFQxtIesBhI+07YtsY9HhPj5aaNPUvnpAy9PTR6XvPsk3hMiqG/BmRP1uOk01YeQFxx07HcGvUh/kOaJdc4hv1qUDb1a6zSIO74MnbJRc/VHttymnhRn+NwNA0dLz+7r44bBtX56gbHkpQ+1+Tjzp05ZkWPMceNu9BsDTmjar87F/no/NPkFHab83Sd+bz5zifRmQvHPb28Ti9Pi25CTnbfEoFXEIAABCAAAQhAAAJXJ0BDp9MMtprvyhR0yo9hrkegVVPeV/jWTKKioIzl2/Ty/DK9lQOM6S775xdVoyIdv9yFEwypvMPHGNs4tml0vL1Mz/khIHN8eadEvHZ2H4pcG+GQceShTHzKZ7M55OQQmxHGZFcxFFdv7JqVxRu3TZzVfW6DZIOtM1itFzNf8Ryzz+Y385Jfb0vc9R0v1VzMWpDnpaaHrMGMHcdaGhupJHPM3IBScXOOSgsWyDw/Yp7TNSbzqRszNoqfk3Oep7PIxNS3wUk/5DnlL68dPzf2QgACEIAABCAAAQh8dQI0dDrNUKv5pqHTaUIeYJhWTXkNnWxAw3NNVo2dMuTJDJfnoMh/3WiFZWmw5K9nGZOdzXyOWeWRDWp5To1sAOVnTeXn1qQ66saDk1wx7br23XycUJJjqkObbDcfxTUF1WM/T6+GlTd0fsZPHDc/l8aJXd3xEoLtsTUD1nXY5kg4od6n6np6mV5fntTzinJcdZxtpuSaTM6yn1KN7fKr88vnZQ3G5k4ezzDQm7nplvWn5z0e2xTHyck7T2g25WquhTTg9Fxdz07zaW7wVdebLpAtCEAAAhCAAAQgAIELEHhfQ+cChX21FFvNNw2drzZzXzefVk193QrIbHQCuaGzycFrcGye8ME3e4/3wXQ5HQIQgAAEIAABCEBgXAI0dDrNfav5bjI4nXJmmK9NoFVTX7sKshuZQNPnXecGS1NOI08atUMAAhCAAAQgAAEIfBkCNHQ6TUWL+Y5Gwn7doFN+DHM9Ai2aul5VZDwSgabmyWkNnfB1J/3VpfQ1QefrUyNNCrVCAAIQgAAEIAABCFyGAA2dTlOF+e4EeqBh0NRAk/2gpX5uQyc/kDo/Byf8pJnzoFKjLAhAAAIQgAAEIPCQBGjodJpWzHcn0AMNg6YGmmxKhQAEIAABCEAAAhCAAAQgYAjQ0DFAztrEfJ9Fdty4aGrcuadyCEAAAhCAAAQgAAEIQAACNHQ6aQDz3Qn0QMOgqYEmm1IhAAEIQAACEIAABCAAAQgYAjR0DJCzNjHfZ5EdNy6aGnfuqRwCEIAABCAAAQhAAAIQgAANnU4awHx3Aj3QMGhqoMmmVAhAAAIQgAAEIAABCEAAAoYADR0D5KxNzPdZZMeNi6bGnXsqhwAEIAABCEAAAhCAAAQgQEOnkwYw351ADzQMmhposikVAhCAAAQgAAEIQAACEICAIUBDxwA5axPzfRbZceOiqXHnnsohAAEIQAACEIAABCAAAQjQ0OmkAcx3J9ADDYOmBppsSoUABCAAAQhAAAIQgAAEIGAI0NAxQM7axHyfRXbcuGhq3LmncghAAAIQgAAEIAABCEAAAv8HBBCAAAQgAAEIQAACEIAABCAAAQhAAALXIkBD51rzRbYQgAAEIAABCEAAAhCAAAQgAAEIQGCioYMIIAABCEAAAhCAAAQgAAEIQAACEIDAxQjQ0LnYhJEuBCAAAQhAAAIQgAAEIAABCEAAAhCgoYMGIAABCEAAAhCAAAQgAAEIQAACEIDAxQjQ0LnYhJEuBCAAAQhAAAIQgAAEIAABCEAAAhCgoYMGIAABCEAAAhCAAAQgAAEIQAACEIDAxQjQ0LnYhJEuBCDnbuD0AAAAM0lEQVQAAQhAAAIQgAAEIAABCEAAAhCgoYMGIAABCEAAAhCAAAQgAAEIQAACEIDAxQj8fy65ttzzMGSzAAAAAElFTkSuQmCC;" vertex="1" parent="1">
          <mxGeometry x="570" y="80" width="969.53" height="455" as="geometry" />
        </mxCell>
      </root>
    </mxGraphModel>
  </diagram>
</mxfile>
